<svg width="166.000000" height="57.000000" viewBox="0 0 166 57" fill="none" xmlns="http://www.w3.org/2000/svg" xmlns:xlink="http://www.w3.org/1999/xlink">
	<desc>
			Created with Pixso.
	</desc>
	<defs/>
	<path id="Vector" d="M75.23 -0.24C75.15 -0.16 75.09 2.92 75.09 6.61L75.09 13.33L77.04 13.33L78.98 13.33L78.93 6.53L78.88 -0.26L77.12 -0.32C76.15 -0.35 75.3 -0.31 75.23 -0.24ZM86.89 -0.24C86.81 -0.16 86.75 2.92 86.75 6.61L86.75 13.33L88.7 13.33L90.65 13.33L90.59 6.53L90.54 -0.26L88.78 -0.32C87.82 -0.35 86.96 -0.31 86.89 -0.24ZM69.39 13.45C69.32 13.53 69.26 17.08 69.26 21.36L69.26 29.13L71.2 29.13L73.15 29.13L73.15 21.23L73.15 13.33L71.33 13.33C70.33 13.33 69.46 13.38 69.39 13.45ZM81.06 13.45C80.98 13.52 80.92 17.08 80.92 21.36L80.92 29.13L82.87 29.13L84.81 29.13L84.76 21.28L84.71 13.42L82.95 13.37C81.99 13.34 81.13 13.37 81.06 13.45ZM92.58 21.22L92.58 29.13L94.53 29.13L96.48 29.13L96.43 21.28L96.37 13.42L94.48 13.37L92.58 13.31L92.58 21.22ZM31.74 40.48C30.85 40.77 30.1 41.24 29.47 41.89C27.65 43.77 27.87 46.76 29.93 48.33C30.36 48.65 31.65 49.29 32.78 49.75C35.18 50.7 36.02 51.43 36.02 52.57C36.02 54.4 33.12 55.08 29.45 54.11L28.42 53.83L28.48 54.83L28.54 55.82L29.7 56.19C31.48 56.77 34.61 56.74 35.97 56.14C38.01 55.23 39.02 53.4 38.56 51.4C38.12 49.44 36.91 48.29 34.21 47.25C31.86 46.36 31.24 45.99 30.96 45.31C30.58 44.41 31.03 43.27 31.93 42.79C32.77 42.35 34.59 42.32 36.51 42.72C37.25 42.88 37.94 43.01 38.02 43.01C38.11 43.01 38.15 42.6 38.12 42.09L38.06 41.18L36.99 40.82C35.82 40.42 32.56 40.21 31.74 40.48ZM45.64 40.65C43.28 41.48 41.9 42.76 41.04 44.91C40.66 45.84 40.6 46.36 40.6 48.5C40.6 51.39 40.91 52.47 42.19 54.02C43.75 55.92 45.35 56.58 48.36 56.59C50.39 56.59 50.58 56.56 51.91 55.94C54.33 54.83 55.61 53.01 56.07 50.07C56.7 46.06 55.01 42.37 51.91 40.97C50.87 40.5 50.4 40.42 48.65 40.36C47.07 40.32 46.4 40.38 45.64 40.65ZM117.83 40.75C116.29 41.28 115.34 41.97 114.46 43.17C113.53 44.43 113.15 45.71 113.04 47.91C112.85 51.72 114.06 54.33 116.62 55.68C119.53 57.21 123.44 56.94 125.96 55.04C127.92 53.56 129.05 50.07 128.55 47.01C128.07 44.02 126.82 42.17 124.53 41.05C123.39 40.5 123.06 40.43 121.19 40.37C119.41 40.31 118.94 40.36 117.83 40.75ZM148.01 40.67C146.75 41.11 146.08 41.58 145.51 42.43C144.54 43.83 144.44 45.37 145.21 46.88C145.87 48.16 146.83 48.85 149.42 49.86C151.42 50.65 152.37 51.4 152.56 52.37C152.71 53.08 152.1 53.92 151.16 54.31C150.33 54.66 148.24 54.64 146.52 54.28C145.78 54.13 145.09 54 145.01 54C144.92 54 144.88 54.41 144.91 54.91L144.97 55.83L146.04 56.21C146.86 56.5 147.62 56.59 149.36 56.59C151.48 56.6 151.67 56.57 152.75 56.02C154.3 55.23 155.02 54.21 155.14 52.65C155.21 51.68 155.14 51.32 154.7 50.44C153.96 48.93 152.94 48.16 150.47 47.22C147.96 46.27 147.4 45.8 147.4 44.67C147.4 43.2 148.42 42.43 150.36 42.44C151.33 42.44 153.5 42.82 154.26 43.12C154.58 43.24 154.61 43.15 154.55 42.22L154.49 41.19L153.33 40.83C151.56 40.29 149.29 40.22 148.01 40.67ZM6.21 40.65C6.07 40.88 -0.13 56.27 -0.13 56.39C-0.13 56.46 0.38 56.5 1 56.5L2.14 56.5L2.9 54.53L3.66 52.55L6.83 52.55L10 52.55L10.78 54.53L11.56 56.5L13.02 56.5C14.4 56.5 14.48 56.48 14.39 56.11C14.33 55.9 12.9 52.3 11.22 48.11L8.15 40.5L7.23 40.5C6.72 40.5 6.26 40.57 6.21 40.65ZM15.8 48.5L15.8 56.54L19.16 56.47C22.16 56.4 22.62 56.34 23.53 55.94C25.92 54.89 26.99 52.25 25.89 50.09C25.52 49.35 24.66 48.43 24.32 48.41C24.25 48.41 23.95 48.32 23.66 48.21L23.12 48.01L23.81 47.54C25.48 46.42 25.59 43.52 24.02 42C22.9 40.91 21.96 40.66 18.67 40.55L15.8 40.46L15.8 48.5ZM58.18 48.5L58.18 56.5L62.55 56.5L66.93 56.5L66.93 55.44L66.93 54.38L64.01 54.38L61.1 54.38L61.05 47.49L61 40.6L59.59 40.54L58.18 40.49L58.18 48.5ZM68.09 46.16C68.09 52.64 68.18 53.2 69.48 54.65C69.92 55.15 70.73 55.79 71.28 56.08C72.13 56.52 72.51 56.59 73.92 56.59C76.02 56.59 77.26 56.09 78.48 54.74C79.89 53.19 79.95 52.83 79.95 46.24L79.95 40.48L78.93 40.54L77.91 40.6L77.81 46.19C77.72 51.57 77.7 51.82 77.26 52.7C76.32 54.59 73.75 55.26 72.3 54C71.01 52.87 70.93 52.44 70.85 46.14L70.78 40.5L69.44 40.5L68.09 40.5L68.09 46.16ZM81.35 41.52C81.39 42.25 81.49 42.54 81.7 42.55C81.86 42.57 82.67 42.59 83.49 42.6L85 42.62L85.05 49.52L85.1 56.41L86.51 56.46L87.92 56.52L87.92 49.57C87.92 44.15 87.97 42.62 88.16 42.61C88.3 42.6 89.1 42.58 89.96 42.56L91.52 42.53L91.57 41.52L91.63 40.5L86.46 40.5L81.29 40.5L81.35 41.52ZM99.58 48.5L99.58 56.5L100.94 56.5L102.3 56.5L102.31 53.37C102.31 51.65 102.36 50.04 102.43 49.81C102.54 49.38 102.6 49.37 105.34 49.37L108.14 49.37L108.14 52.94L108.14 56.5L109.5 56.5L110.86 56.5L110.86 48.5L110.86 40.5L109.5 40.5L108.14 40.5L108.14 43.88L108.14 47.25L105.35 47.25L102.56 47.25L102.43 45.78C102.36 44.97 102.3 43.45 102.3 42.4L102.3 40.5L100.94 40.5L99.58 40.5L99.58 48.5ZM130.72 46.53L130.78 52.55L131.3 53.52C132.44 55.64 134.12 56.6 136.71 56.6C138.12 56.59 138.5 56.52 139.36 56.08C139.9 55.79 140.71 55.16 141.14 54.67C142.47 53.17 142.54 52.77 142.54 46.25L142.54 40.5L141.48 40.5L140.42 40.5L140.36 46.24C140.31 51.95 140.3 51.98 139.82 52.81C138.78 54.62 136.29 55.21 134.89 54C133.6 52.87 133.52 52.44 133.44 46.14L133.37 40.5L132.02 40.5L130.66 40.5L130.72 46.53ZM157.12 48.5L157.12 56.51L161.44 56.46L165.77 56.41L165.77 55.44L165.77 54.48L162.8 54.43L159.84 54.37L159.84 51.87L159.84 49.37L162.85 49.37L165.87 49.37L165.87 48.41L165.87 47.44L162.85 47.44L159.83 47.44L159.88 45.03L159.94 42.62L162.85 42.57L165.77 42.53L165.77 41.57L165.77 40.6L161.44 40.55L157.12 40.5L157.12 48.5ZM18.57 44.89L18.62 47.35L19.29 47.41C20.26 47.5 21.49 46.97 21.9 46.28C22.41 45.43 22.41 44.13 21.91 43.46C21.34 42.7 20.73 42.44 19.54 42.44L18.51 42.43L18.57 44.89ZM46.45 42.71C44.57 43.38 43.41 45.52 43.41 48.33C43.4 52.08 44.97 54.26 47.86 54.52C51.19 54.82 53.16 52.64 53.18 48.6C53.2 46.49 52.98 45.59 52.16 44.3C51.11 42.66 48.58 41.96 46.45 42.71ZM118.5 42.92C116.66 43.83 115.81 45.84 115.95 48.96C116.03 50.94 116.47 52.29 117.33 53.2C119.01 54.98 122.54 54.99 124.17 53.21C125.2 52.07 125.48 51.27 125.59 49.11C125.76 45.75 124.95 43.78 123.05 42.91C121.62 42.25 119.85 42.25 118.5 42.92ZM5.64 47.34C5.03 48.99 4.53 50.42 4.53 50.53C4.53 50.65 5.42 50.72 6.86 50.72C8.15 50.72 9.2 50.67 9.2 50.61C9.2 50.32 6.98 44.36 6.88 44.36C6.81 44.36 6.25 45.7 5.64 47.34ZM18.67 49.29C18.59 49.37 18.53 50.59 18.53 52.01L18.53 54.58L19.88 54.58C22.38 54.58 23.43 53.81 23.45 51.97C23.47 50.82 23.09 50.11 22.22 49.66C21.58 49.33 18.9 49.05 18.67 49.29Z" fill="#2C2C2C" fill-opacity="1.000000" fill-rule="evenodd"/>
</svg>
