<svg width="27.000000" height="27.000000" viewBox="0 0 27 27" fill="none" xmlns="http://www.w3.org/2000/svg" xmlns:xlink="http://www.w3.org/1999/xlink">
	<desc>
			Created with Pixso.
	</desc>
	<defs>
		<clipPath id="clip688_61">
			<rect id="arcticons:samsung-contacts" width="27.000000" height="27.000000" transform="translate(0.000000 -0.500000)" fill="white" fill-opacity="0"/>
		</clipPath>
	</defs>
	<rect id="arcticons:samsung-contacts" width="27.000000" height="27.000000" transform="translate(0.000000 -0.500000)" fill="#FFFFFF" fill-opacity="0"/>
	<g clip-path="url(#clip688_61)">
		<path id="Vector" d="M22 19.41C21.25 15.39 17.73 12.35 13.5 12.35C9.26 12.35 5.75 15.39 4.99 19.41C7.02 21.85 10.08 23.4 13.5 23.4C16.92 23.4 19.97 21.85 22 19.41Z" stroke="#000000" stroke-opacity="1.000000" stroke-width="1.000000" stroke-linejoin="round"/>
		<path id="Vector" d="M13.5 10.69C11.26 10.69 9.44 8.88 9.44 6.64C9.44 4.4 11.26 2.59 13.5 2.59C15.73 2.59 17.55 4.4 17.55 6.64C17.55 8.88 15.73 10.69 13.5 10.69Z" stroke="#000000" stroke-opacity="1.000000" stroke-width="1.000000" stroke-linejoin="round"/>
	</g>
</svg>
