<svg width="28.000000" height="28.000000" viewBox="0 0 28 28" fill="none" xmlns="http://www.w3.org/2000/svg" xmlns:xlink="http://www.w3.org/1999/xlink">
	<desc>
			Created with Pixso.
	</desc>
	<defs>
		<clipPath id="clip142_56">
			<rect id="arcticons:services" width="28.000000" height="28.000000" transform="translate(-0.500000 0.000000)" fill="white" fill-opacity="0"/>
		</clipPath>
	</defs>
	<rect id="arcticons:services" width="28.000000" height="28.000000" transform="translate(-0.500000 0.000000)" fill="#FFFFFF" fill-opacity="0"/>
	<g clip-path="url(#clip142_56)">
		<path id="Vector" d="M4.97 7.73C3.72 7.73 2.7 6.72 2.7 5.47C2.7 4.22 3.72 3.2 4.97 3.2C6.22 3.2 7.23 4.22 7.23 5.47C7.23 6.72 6.22 7.73 4.97 7.73Z" stroke="#000000" stroke-opacity="1.000000" stroke-width="1.000000" stroke-linejoin="round"/>
		<path id="Vector" d="M4.97 24.79C3.72 24.79 2.7 23.77 2.7 22.52C2.7 21.27 3.72 20.26 4.97 20.26C6.22 20.26 7.23 21.27 7.23 22.52C7.23 23.77 6.22 24.79 4.97 24.79Z" stroke="#000000" stroke-opacity="1.000000" stroke-width="1.000000" stroke-linejoin="round"/>
		<path id="Vector" d="M4.97 16.26C3.72 16.26 2.7 15.24 2.7 14C2.7 12.75 3.72 11.73 4.97 11.73C6.22 11.73 7.23 12.75 7.23 14C7.23 15.24 6.22 16.26 4.97 16.26Z" stroke="#000000" stroke-opacity="1.000000" stroke-width="1.000000" stroke-linejoin="round"/>
		<path id="Vector" d="M23.24 3.2C23.82 3.2 24.29 3.67 24.29 4.25L24.29 6.68C24.29 7.26 23.82 7.73 23.24 7.73L10.71 7.73C10.13 7.73 9.67 7.26 9.67 6.68L9.67 4.25C9.67 3.67 10.13 3.2 10.71 3.2L23.24 3.2Z" stroke="#000000" stroke-opacity="1.000000" stroke-width="1.000000" stroke-linejoin="round"/>
		<path id="Vector" d="M23.24 20.26C23.82 20.26 24.29 20.73 24.29 21.31L24.29 23.74C24.29 24.32 23.82 24.79 23.24 24.79L10.71 24.79C10.13 24.79 9.67 24.32 9.67 23.74L9.67 21.31C9.67 20.73 10.13 20.26 10.71 20.26L23.24 20.26Z" stroke="#000000" stroke-opacity="1.000000" stroke-width="1.000000" stroke-linejoin="round"/>
		<path id="Vector" d="M23.24 11.73C23.82 11.73 24.29 12.2 24.29 12.78L24.29 15.21C24.29 15.79 23.82 16.26 23.24 16.26L10.71 16.26C10.13 16.26 9.67 15.79 9.67 15.21L9.67 12.78C9.67 12.2 10.13 11.73 10.71 11.73L23.24 11.73Z" stroke="#000000" stroke-opacity="1.000000" stroke-width="1.000000" stroke-linejoin="round"/>
	</g>
</svg>
