<svg width="125.000000" height="29.000000" viewBox="0 0 125 29" fill="none" xmlns="http://www.w3.org/2000/svg" xmlns:xlink="http://www.w3.org/1999/xlink">
	<desc>
			Created with Pixso.
	</desc>
	<defs/>
	<path id="Vector" d="M4.11 -0.14C0.6 -0.07 0.27 -0.02 0.02 0.52C-0.16 0.91 -0.22 5.48 -0.17 14.54C-0.1 27.47 -0.08 28.01 0.39 28.41C0.79 28.75 2.77 28.82 11.86 28.82L22.84 28.82L24.29 28.05C25.37 27.48 25.94 26.94 26.55 25.92C27.35 24.56 27.36 24.52 27.35 21.07C27.35 17.35 27.36 17.4 25.55 14.46C25.29 14.04 25.34 13.82 25.88 13.14C26.92 11.83 27.29 10.48 27.33 7.95C27.37 4.75 26.58 1.82 25.49 1.18C25.07 0.93 24.55 0.55 24.34 0.33C24.03 0.02 22.23 -0.08 15.94 -0.14C11.53 -0.19 6.21 -0.19 4.11 -0.14ZM45.07 -0.15L35.07 -0.07L34.36 0.63C33.96 1.01 33.55 1.37 33.45 1.43C33.34 1.48 32.94 1.97 32.56 2.5C31.88 3.45 31.87 3.55 31.87 7.37C31.87 9.87 31.97 11.34 32.14 11.47C32.64 11.83 38.13 11.73 38.45 11.36C38.61 11.16 38.75 10.19 38.76 9.19L38.77 7.37L46.04 7.37L53.31 7.37L53.43 9.56L53.56 11.75L56.82 11.64C58.61 11.59 60.17 11.45 60.27 11.33C60.38 11.21 60.49 9.81 60.52 8.21C60.57 5.85 60.5 5.15 60.14 4.52C59.9 4.09 59.7 3.45 59.7 3.1C59.7 1.98 57.49 0.08 55.94 -0.12C55.46 -0.18 50.56 -0.19 45.07 -0.15ZM75.64 -0.15C67.81 -0.09 65.32 0.02 65.17 0.29C64.83 0.92 64.92 28.07 65.27 28.47C65.47 28.71 66.56 28.82 68.51 28.82C70.85 28.82 71.53 28.73 71.85 28.37C72.17 27.99 72.24 27.11 72.24 23.43C72.24 18.43 72.17 18.61 74.13 18.61C75.26 18.61 76.09 19.27 78.66 22.23C80.08 23.87 83.57 27.51 83.99 27.78C84.21 27.93 84.55 28.23 84.73 28.44C84.97 28.72 86.02 28.82 88.66 28.82C90.64 28.82 92.44 28.74 92.65 28.65C92.91 28.53 93.04 28.14 93.03 27.55C93.01 26.79 92.72 26.34 91.25 24.88C90.28 23.92 89.23 22.97 88.92 22.77C88.6 22.57 87.85 21.86 87.25 21.2C86.65 20.54 85.96 19.8 85.72 19.55C85 18.8 85.2 18.61 86.72 18.6C87.51 18.6 88.44 18.41 88.79 18.18C89.13 17.95 89.67 17.62 89.99 17.45C90.31 17.28 90.83 16.48 91.18 15.62C91.75 14.19 91.79 13.76 91.8 9.26C91.8 4.94 91.75 4.31 91.26 3.12C90.55 1.37 88.88 0.05 87.16 -0.11C86.47 -0.17 81.28 -0.19 75.64 -0.15ZM97.44 -0.08L96.44 0.07L96.44 14.37L96.44 28.68L99.77 28.68C102.45 28.68 103.15 28.59 103.34 28.24C103.49 27.98 103.55 25.66 103.51 22.62C103.45 19.09 103.51 17.44 103.69 17.44C103.84 17.44 104.35 17.9 104.84 18.46C105.73 19.51 107.65 21.45 109.58 23.28C110.18 23.84 110.85 24.54 111.07 24.83C111.3 25.13 112.3 26.15 113.31 27.1L115.15 28.82L119.74 28.82C124.93 28.82 125.25 28.71 124.53 27.09C124.31 26.6 124.02 26.2 123.89 26.2C123.75 26.2 123.03 25.55 122.28 24.75C121.53 23.96 120.6 23.07 120.21 22.78C119.83 22.49 119.06 21.76 118.51 21.15C117.95 20.54 116.06 18.7 114.3 17.07C111.13 14.12 110.59 13.29 111.61 12.91C111.88 12.81 112.11 12.62 112.11 12.48C112.11 12.26 113.12 11.32 115.72 9.13C117.76 7.41 120.53 4.88 121.55 3.8C122.13 3.2 122.86 2.63 123.18 2.54C123.81 2.36 124.31 1.16 124.06 0.39C123.93 -0.01 123.34 -0.08 119.63 -0.08L115.35 -0.08L114.04 1.06C113.32 1.69 112.28 2.67 111.73 3.25C110.51 4.52 107.81 6.93 107.61 6.93C107.53 6.93 106.74 7.72 105.85 8.69C104.96 9.66 104.07 10.41 103.88 10.37C103.6 10.3 103.54 9.35 103.54 5.57C103.54 2.39 103.45 0.7 103.25 0.4C103.03 0.05 102.4 -0.08 100.7 -0.14C99.46 -0.19 97.99 -0.16 97.44 -0.08ZM7.15 6.45C7.08 6.66 7.06 7.81 7.1 9L7.17 11.16L13.42 11.1C16.85 11.07 19.76 10.93 19.89 10.78C20.01 10.64 20.13 9.79 20.16 8.9C20.2 7.66 20.1 7.14 19.73 6.67C19.27 6.08 19.04 6.05 13.27 6.05C8.49 6.05 7.26 6.13 7.15 6.45ZM72.51 7.05C72.32 7.31 72.24 8.35 72.29 9.88L72.36 12.31L78.19 12.34C81.4 12.36 84.15 12.27 84.32 12.15C84.72 11.86 84.89 8.46 84.55 7.44L84.29 6.64L78.54 6.64C73.92 6.64 72.75 6.72 72.51 7.05ZM32.04 17.05C31.95 17.16 31.87 18.99 31.87 21.12C31.87 24.97 31.88 25.01 32.64 26.33C33.06 27.06 33.55 27.66 33.73 27.66C33.91 27.66 34.31 27.92 34.63 28.24C35.19 28.8 35.57 28.82 45.84 28.82C56.26 28.82 56.49 28.81 57.52 28.19C58.1 27.84 58.74 27.47 58.95 27.36C59.16 27.25 59.42 26.78 59.54 26.31C59.66 25.85 59.93 25.03 60.15 24.5C60.65 23.29 60.68 17.96 60.19 17.28C59.94 16.92 59.3 16.85 56.72 16.92L53.56 17L53.43 19.19L53.31 21.38L46.54 21.46C42.81 21.51 39.51 21.47 39.19 21.38C38.65 21.22 38.61 21.09 38.68 19.31C38.74 17.88 38.66 17.34 38.38 17.14C37.96 16.83 32.29 16.75 32.04 17.05ZM7.14 17.57C7.08 17.77 7.05 18.78 7.1 19.8L7.17 21.67L13.48 21.77C19.44 21.86 19.81 21.83 20.05 21.32C20.34 20.69 20.3 18.06 20 17.5C19.7 16.96 7.32 17.03 7.14 17.57Z" fill="#2C2C2C" fill-opacity="1.000000" fill-rule="evenodd"/>
</svg>
