<svg width="30.000000" height="28.000000" viewBox="0 0 30 28" fill="none" xmlns="http://www.w3.org/2000/svg" xmlns:xlink="http://www.w3.org/1999/xlink">
	<desc>
			Created with Pixso.
	</desc>
	<defs/>
	<path id="Shape" d="M-0.68 0.68C-0.68 -0.1 -0.04 -0.73 0.74 -0.73L2.78 -0.73C4.73 -0.73 6.43 0.59 6.9 2.49L7.16 3.52L25.67 3.52C28.92 3.52 30.96 7 29.39 9.83L25.45 16.91C24.7 18.26 23.28 19.1 21.74 19.1L11.45 19.1C9.5 19.1 7.8 17.77 7.33 15.88L4.15 3.17C3.99 2.54 3.43 2.1 2.78 2.1L0.74 2.1C-0.04 2.1 -0.68 1.47 -0.68 0.68ZM7.86 6.35L10.08 15.19C10.23 15.82 10.8 16.27 11.45 16.27L21.74 16.27C22.25 16.27 22.73 15.99 22.98 15.54L26.91 8.45C27.44 7.51 26.75 6.35 25.67 6.35L7.86 6.35ZM12.07 24.77C12.07 26.33 10.8 27.6 9.24 27.6C7.67 27.6 6.4 26.33 6.4 24.77C6.4 23.2 7.67 21.93 9.24 21.93C10.8 21.93 12.07 23.2 12.07 24.77ZM23.4 27.6C24.97 27.6 26.24 26.33 26.24 24.77C26.24 23.2 24.97 21.93 23.4 21.93C21.84 21.93 20.57 23.2 20.57 24.77C20.57 26.33 21.84 27.6 23.4 27.6Z" fill="#5754FF" fill-opacity="1.000000" fill-rule="evenodd"/>
</svg>
