<svg width="53.000000" height="61.000000" viewBox="0 0 53 61" fill="none" xmlns="http://www.w3.org/2000/svg" xmlns:xlink="http://www.w3.org/1999/xlink">
	<desc>
			Created with Pixso.
	</desc>
	<defs/>
	<path id="Vector" d="M48.3 12.9L44.02 17.07M25.99 9.79C19.23 9.79 12.74 12.41 7.96 17.07C3.18 21.73 0.49 28.05 0.49 34.63C0.49 41.22 3.18 47.54 7.96 52.2C12.74 56.86 19.23 59.48 25.99 59.48C32.75 59.48 39.24 56.86 44.02 52.2C48.8 47.54 51.49 41.22 51.49 34.63C51.49 28.05 48.8 21.73 44.02 17.07C39.24 12.41 32.75 9.79 25.99 9.79ZM25.99 22.21L25.99 34.63M16.43 0.48L35.55 0.48" stroke="#000000" stroke-opacity="1.000000" stroke-width="2.000000" stroke-linejoin="round"/>
</svg>
