<svg width="61.000000" height="61.000000" viewBox="0 0 61 61" fill="none" xmlns="http://www.w3.org/2000/svg" xmlns:xlink="http://www.w3.org/1999/xlink">
	<desc>
			Created with Pixso.
	</desc>
	<defs/>
	<path id="Vector" d="M59.85 28.53L34.63 1.53C34.02 0.88 33.3 0.36 32.51 0.01C31.71 -0.34 30.86 -0.52 30.01 -0.52C29.15 -0.52 28.3 -0.34 27.51 0.01C26.71 0.36 25.99 0.88 25.39 1.53L0.16 28.53C-0.24 28.97 -0.46 29.56 -0.45 30.17C-0.45 30.78 -0.22 31.37 0.18 31.8C0.59 32.23 1.14 32.48 1.71 32.48C2.28 32.49 2.83 32.25 3.24 31.83L28.47 4.82C28.88 4.39 29.43 4.14 30.01 4.14C30.58 4.14 31.14 4.39 31.55 4.82L56.78 31.83C56.98 32.06 57.22 32.24 57.48 32.37C57.75 32.5 58.04 32.56 58.33 32.57C58.62 32.58 58.91 32.52 59.18 32.4C59.46 32.28 59.7 32.11 59.91 31.89C60.12 31.67 60.28 31.4 60.39 31.11C60.5 30.82 60.55 30.51 60.55 30.2C60.54 29.89 60.48 29.58 60.36 29.29C60.24 29 60.07 28.75 59.85 28.53ZM31.56 2.43Q30.84 2.14 30.01 2.14Q29.17 2.14 28.46 2.43Q27.66 2.76 27.01 3.46L1.8 30.44Q1.76 30.48 1.72 30.48Q1.69 30.48 1.65 30.43Q1.63 30.42 1.62 30.4Q1.55 30.3 1.55 30.16Q1.54 29.98 1.62 29.9L26.85 2.89Q27.31 2.4 27.87 2.07Q28.09 1.94 28.32 1.84Q28.8 1.63 29.3 1.54Q29.65 1.48 30.01 1.48Q30.36 1.48 30.71 1.54Q31.22 1.63 31.7 1.84Q31.93 1.94 32.14 2.07Q32.7 2.4 33.16 2.89L58.42 29.93L58.44 29.95Q58.48 29.99 58.51 30.06Q58.52 30.07 58.52 30.08Q58.54 30.15 58.55 30.23Q58.55 30.31 58.53 30.38Q58.52 30.39 58.52 30.41Q58.49 30.48 58.45 30.52Q58.42 30.55 58.39 30.56Q58.38 30.57 58.37 30.57Q58.36 30.57 58.34 30.56Q58.31 30.55 58.28 30.52L58.26 30.49L33.01 3.46Q32.36 2.76 31.56 2.43Z" fill="#000000" fill-opacity="1.000000" fill-rule="evenodd"/>
	<path id="Vector" d="M28.64 11.23L6.32 35.12C6.23 35.22 6.14 35.31 6.05 35.39L6.05 54.65C6.05 56.2 6.63 57.68 7.65 58.77C8.67 59.87 10.05 60.48 11.5 60.48L21.3 60.48C21.87 60.48 22.43 60.23 22.84 59.8C23.25 59.36 23.47 58.77 23.47 58.15L23.47 44.16C23.47 43.55 23.7 42.95 24.11 42.52C24.52 42.08 25.07 41.83 25.65 41.83L34.36 41.83C34.94 41.83 35.49 42.08 35.9 42.52C36.31 42.95 36.54 43.55 36.54 44.16L36.54 58.15C36.54 58.77 36.77 59.36 37.18 59.8C37.59 60.23 38.14 60.48 38.72 60.48L48.52 60.48C51.52 60.48 53.96 57.87 53.96 54.65L53.96 35.39C53.87 35.31 53.78 35.22 53.7 35.12L31.37 11.23L30.01 9.77L30.01 9.76L28.64 11.23ZM30 12.7L8.05 36.2L8.05 54.65Q8.05 55.61 8.42 56.4Q8.68 56.95 9.11 57.41Q9.7 58.04 10.42 58.3Q10.93 58.48 11.5 58.48L21.3 58.48Q21.33 58.48 21.38 58.43Q21.39 58.41 21.4 58.4Q21.47 58.3 21.47 58.15L21.47 44.16Q21.47 43.23 21.81 42.43Q22.1 41.74 22.65 41.15Q23.3 40.46 24.1 40.13Q24.82 39.83 25.65 39.83L34.36 39.83Q35.2 39.83 35.91 40.13Q36.71 40.46 37.36 41.15Q37.91 41.74 38.21 42.43Q38.54 43.23 38.54 44.16L38.54 58.15Q38.54 58.3 38.61 58.4Q38.62 58.41 38.64 58.43Q38.68 58.48 38.72 58.48L48.52 58.48Q49.08 58.48 49.59 58.3Q50.31 58.04 50.9 57.41Q51.34 56.94 51.59 56.39Q51.96 55.61 51.96 54.65L51.96 36.2L30 12.7Z" fill="#000000" fill-opacity="1.000000" fill-rule="evenodd"/>
</svg>
