<svg width="66.000000" height="63.000000" viewBox="0 0 66 63" fill="none" xmlns="http://www.w3.org/2000/svg" xmlns:xlink="http://www.w3.org/1999/xlink">
	<desc>
			Created with Pixso.
	</desc>
	<defs/>
	<path id="Vector" d="M24.22 35.34C12.97 35.34 3.86 37.94 3.86 41.15C3.86 44.36 12.97 46.96 24.22 46.96C35.47 46.96 44.58 44.36 44.58 41.15C44.58 37.94 35.47 35.34 24.22 35.34ZM3.86 41.15L3.86 55.49C3.86 58.8 12.97 61.48 24.22 61.48C35.47 61.48 44.58 58.8 44.58 55.49L44.58 41.15M24.22 9.19C11.37 9.19 0.95 11.79 0.95 15C0.95 18.21 11.37 20.81 24.22 20.81C24.22 23.76 33.68 26.62 44.81 26.62C55.93 26.62 64.95 23.76 64.95 20.81M0.95 15L0.95 29.53C0.95 32.47 11.37 35.34 24.22 35.34M44.81 0.48C33.68 0.48 24.67 3.08 24.67 6.29C24.67 9.5 33.69 12.1 44.81 12.1C55.93 12.1 64.95 9.5 64.95 6.29C64.95 3.08 55.93 0.48 44.81 0.48ZM44.58 41.15C55.71 41.15 64.95 38.28 64.95 35.34L64.95 6.29M24.67 6.29L24.67 35.82" stroke="#000000" stroke-opacity="1.000000" stroke-width="2.000000"/>
</svg>
