<svg width="28.000000" height="29.000000" viewBox="0 0 28 29" fill="none" xmlns="http://www.w3.org/2000/svg" xmlns:xlink="http://www.w3.org/1999/xlink">
	<desc>
			Created with Pixso.
	</desc>
	<defs/>
	<path id="Vector" d="M4.07 25.09C3.76 25 3.49 24.83 3.26 24.6C3.04 24.36 2.87 24.07 2.79 23.75L2 20.8L19.14 2.95L24.04 8.05L6.9 25.91L4.07 25.09ZM3.26 24.59L21.6 5.5" stroke="#000000" stroke-opacity="1.000000" stroke-width="1.500000" stroke-linejoin="round" stroke-linecap="round"/>
	<path id="Vector" d="M25.97 2.05C26.22 2.32 26.42 2.63 26.56 2.97C26.69 3.32 26.77 3.69 26.77 4.06C26.77 4.43 26.69 4.8 26.56 5.14C26.42 5.49 26.22 5.8 25.97 6.06L24.04 8.07L19.14 2.96L21.06 0.96C21.32 0.69 21.62 0.48 21.95 0.34C22.28 0.2 22.63 0.13 22.99 0.13C23.35 0.13 23.7 0.2 24.03 0.34C24.36 0.48 24.66 0.69 24.91 0.96L25.97 2.05ZM2 20.8L0.15 26.92C0.11 27.05 0.12 27.18 0.15 27.31C0.18 27.44 0.25 27.55 0.33 27.64C0.42 27.74 0.53 27.8 0.65 27.84C0.78 27.87 0.9 27.87 1.02 27.84L6.9 25.91" stroke="#000000" stroke-opacity="1.000000" stroke-width="1.500000" stroke-linejoin="round" stroke-linecap="round"/>
	<path id="Vector" d="M1.57 27.66C1.65 27.57 1.71 27.47 1.76 27.36C1.8 27.25 1.82 27.13 1.82 27.01C1.82 26.89 1.8 26.77 1.76 26.66C1.71 26.55 1.65 26.45 1.57 26.36C1.48 26.28 1.39 26.21 1.28 26.16C1.17 26.12 1.06 26.09 0.94 26.09C0.83 26.09 0.71 26.12 0.6 26.16C0.5 26.21 0.4 26.28 0.32 26.36" stroke="#000000" stroke-opacity="1.000000" stroke-width="1.500000" stroke-linejoin="round" stroke-linecap="round"/>
</svg>
