<svg width="32.000000" height="31.000000" viewBox="0 0 32 31" fill="none" xmlns="http://www.w3.org/2000/svg" xmlns:xlink="http://www.w3.org/1999/xlink">
	<desc>
			Created with Pixso.
	</desc>
	<defs/>
	<path id="Vector" d="M3.86 30L3.97 22.88L-0.17 22.88L-0.17 20.36L3.97 20.36L3.97 14.57L0.33 14.57L15.68 -1L31.59 14.57L27.7 14.57L27.7 20.36L31.83 20.36L31.83 22.88L27.7 22.88L27.7 30L25.24 30L25.24 22.88L16.89 22.88L16.89 30L14.42 30L14.42 22.88L6.49 22.88L6.49 30L3.86 30ZM6.49 20.36L14.42 20.36L14.42 2.8L6.49 11.13L6.49 20.36ZM16.89 20.36L25.24 20.36L25.24 11.09L16.89 2.8L16.89 20.36Z" fill="#000000" fill-opacity="1.000000" fill-rule="nonzero"/>
</svg>
