<svg width="26.000000" height="29.000000" viewBox="0 0 26 29" fill="none" xmlns="http://www.w3.org/2000/svg" xmlns:xlink="http://www.w3.org/1999/xlink">
	<desc>
			Created with Pixso.
	</desc>
	<defs/>
	<path id="Vector" d="M3.3 11.05L0.9 11.05C0.9 4.27 0.9 0 12.9 0C24.9 0 24.9 4.27 24.9 11.05L22.5 11.05M22.5 8.6C22.5 7.24 18.2 6.14 12.9 6.14C7.59 6.14 3.3 7.24 3.3 8.6C3.3 9.95 7.59 11.05 12.9 11.05C18.2 11.05 22.5 9.95 22.5 8.6ZM3.3 8.6L3.3 23.32C3.3 25.36 7.59 27 12.9 27C18.2 27 22.5 25.36 22.5 23.32L22.5 8.6M3.3 8.6C3.3 12.28 5.1 13.5 6.9 13.5C7.21 13.5 7.52 13.63 7.75 13.86C7.97 14.09 8.1 14.41 8.1 14.73L8.1 19.64C8.1 20.45 8.41 21.24 8.97 21.81C9.54 22.39 10.3 22.71 11.1 22.71C11.89 22.71 12.66 22.39 13.22 21.81C13.78 21.24 14.1 20.45 14.1 19.64L14.1 14.73C14.1 14.41 14.22 14.09 14.45 13.86C14.67 13.63 14.98 13.5 15.3 13.5C15.62 13.5 15.92 13.63 16.15 13.86C16.37 14.09 16.5 14.41 16.5 14.73L16.5 15.35C16.5 15.83 16.69 16.3 17.02 16.65C17.36 16.99 17.82 17.19 18.3 17.19C18.78 17.19 19.23 16.99 19.57 16.65C19.91 16.3 20.1 15.83 20.1 15.35L20.1 13.5C20.1 11.05 22.5 12.28 22.5 8.6" stroke="#000000" stroke-opacity="1.000000" stroke-width="2.000000"/>
</svg>
