<svg width="50" height="50" viewBox="0 0 50 50" fill="none" xmlns="http://www.w3.org/2000/svg">
<path id="Vector" d="M5.09975 0.222729C3.37136 0.601421 1.72065 1.89286 0.93414 3.48531C0.186466 4.99037 0.235016 3.43676 0.235016 24.9348C0.235016 46.4329 0.186466 44.8793 0.93414 46.3843C1.73036 47.9962 3.37136 49.2682 5.1483 49.6469C6.15815 49.8605 44.0274 49.8605 45.0372 49.6469C47.3579 49.1614 49.3193 47.2 49.8048 44.8793C50.0185 43.8694 50.0185 6.00021 49.8048 4.99037C49.3193 2.66966 47.3579 0.708233 45.0372 0.222729C44.0565 0.0188179 6.06105 0.0188179 5.09975 0.222729ZM42.833 6.49543C43.0564 6.60223 43.3477 6.83528 43.4642 7.00035L43.6875 7.31107V14.8558C43.6875 22.3228 43.6875 22.4005 43.4836 22.6627C43.1049 23.1773 42.7942 23.3327 42.1825 23.3327C41.5707 23.3327 41.26 23.1773 40.8813 22.6627C40.6774 22.4005 40.6774 22.2743 40.6483 17.0405L40.6191 11.6903L35.3854 16.924L30.142 22.1675L29.0545 21.0702L27.9572 19.9827L33.2492 14.6907L38.5412 9.39873H33.2201C27.4038 9.39873 27.5009 9.40844 27.0056 8.82584C26.3648 8.05874 26.6561 6.82557 27.5688 6.42746C27.8019 6.32064 29.3069 6.30122 35.133 6.29152C42.3184 6.29152 42.4155 6.29152 42.833 6.49543ZM8.85754 26.7506C8.99349 26.8477 9.1974 27.0613 9.30421 27.207C9.50812 27.4691 9.50812 27.5954 9.53725 32.8291L9.56638 38.1793L14.8001 32.9456L20.0435 27.7022L21.1311 28.7994L22.2283 29.8869L16.9363 35.1789L11.654 40.4709L17.1014 40.4903C22.4322 40.5195 22.5584 40.5195 22.8206 40.7234C23.3352 41.1021 23.4906 41.4128 23.4906 42.0245C23.4906 42.6363 23.3352 42.947 22.8206 43.3257C22.5584 43.5296 22.4808 43.5296 15.0526 43.5296H7.5564L7.15829 43.2674C6.4009 42.7722 6.43974 43.2383 6.46887 34.907L6.498 27.4886L6.77959 27.1293C6.93495 26.9254 7.19713 26.7021 7.3622 26.6244C7.76031 26.4399 8.5274 26.5079 8.85754 26.7506Z" fill="#5754FF"/>
</svg>
