<svg width="17.000000" height="17.000000" viewBox="0 0 17 17" fill="none" xmlns="http://www.w3.org/2000/svg" xmlns:xlink="http://www.w3.org/1999/xlink">
	<desc>
			Created with Pixso.
	</desc>
	<defs/>
	<path id="Vector" d="M3.19 2.37L3.19 1.2C3.19 0.88 3.32 0.57 3.55 0.35C3.77 0.12 4.08 0 4.39 0L14.8 0C15.11 0 15.42 0.12 15.64 0.35C15.87 0.57 16 0.88 16 1.2L16 11.6C16 11.91 15.87 12.22 15.64 12.44C15.42 12.67 15.11 12.8 14.8 12.8L13.6 12.8" stroke="#FFFFFF" stroke-opacity="1.000000" stroke-width="1.000000"/>
	<path id="Vector" d="M12.39 2.39C13.06 2.39 13.6 2.93 13.6 3.59L13.6 14.8C13.6 15.46 13.06 16 12.39 16L1.19 16C0.53 16 0 15.46 0 14.8L0 3.59C0 2.93 0.53 2.39 1.19 2.39L12.39 2.39Z" stroke="#FFFFFF" stroke-opacity="1.000000" stroke-width="1.000000" stroke-linejoin="round"/>
	<path id="Vector" d="M5.77 7.64L7.89 5.44C8.47 4.85 9.42 4.87 10.02 5.46C10.62 6.06 10.63 7.01 10.05 7.6L9.28 8.4M3.78 9.89C3.58 10.1 3.16 10.51 3.16 10.51C2.57 11.09 2.56 12.12 3.16 12.72C3.75 13.31 4.71 13.33 5.29 12.75L7.35 10.87" stroke="#FFFFFF" stroke-opacity="1.000000" stroke-width="1.000000" stroke-linejoin="round"/>
	<path id="Vector" d="M5.86 9.73C5.6 9.46 5.44 9.11 5.41 8.74C5.39 8.53 5.42 8.32 5.5 8.12C5.57 7.92 5.69 7.74 5.83 7.6M7.32 8.74C7.92 9.34 7.93 10.29 7.35 10.87" stroke="#FFFFFF" stroke-opacity="1.000000" stroke-width="1.000000" stroke-linejoin="round"/>
</svg>
