<svg width="68.000000" height="35.000000" viewBox="0 0 68 35" fill="none" xmlns="http://www.w3.org/2000/svg" xmlns:xlink="http://www.w3.org/1999/xlink">
	<desc>
			Created with Pixso.
	</desc>
	<defs/>
	<path id="Vector" d="M28.45 28.33C27.45 28.33 26.64 27.49 26.64 26.46L26.64 17.1C26.64 16.06 27.45 15.23 28.45 15.23C29.44 15.23 30.26 16.06 30.26 17.1L30.26 26.46C30.26 27.49 29.44 28.33 28.45 28.33ZM28.45 8.79C23.62 8.79 19.7 12.85 19.7 17.84L19.7 25.76C19.7 30.75 23.62 34.81 28.45 34.81C33.27 34.81 37.2 30.75 37.2 25.76L37.2 17.84C37.2 12.85 33.27 8.79 28.45 8.79ZM47.74 7.59L49.6 7.59C51.52 7.59 53.07 6.33 53.07 4.34C53.07 2.36 51.52 1.1 49.6 1.1L47.7 1.1C42.88 1.1 38.95 5.04 38.95 10.03L38.95 31.22C38.95 33.2 40.51 34.81 42.42 34.81C44.34 34.81 45.89 33.2 45.89 31.22L45.89 17.24L48.29 17.24C50.21 17.24 51.76 16 51.76 14.02C51.76 12.03 50.2 10.77 48.29 10.77L45.89 10.77L45.89 9.67C45.89 8.47 46.58 7.59 47.74 7.59ZM56.78 26.98C54.66 26.98 52.95 28.75 52.95 30.94C52.95 33.13 54.66 34.9 56.78 34.9C58.9 34.9 60.61 33.13 60.61 30.94C60.61 28.75 58.9 26.98 56.78 26.98ZM62.09 7.59L63.96 7.59C65.88 7.59 67.43 6.33 67.43 4.34C67.43 2.36 65.87 1.1 63.96 1.1L62.06 1.1C57.24 1.1 53.31 5.04 53.31 10.03L53.31 22.2C53.31 24.18 54.87 25.79 56.78 25.79C58.7 25.79 60.25 24.18 60.25 22.2L60.25 17.24L62.65 17.24C64.56 17.24 66.12 16 66.12 14.02C66.12 12.03 64.56 10.77 62.65 10.77L60.25 10.77L60.25 9.67C60.25 8.47 60.94 7.59 62.09 7.59ZM14.56 -0.1C12.64 -0.1 11.08 1.51 11.08 3.49L11.08 10.75L6.37 10.75L6.37 3.49C6.37 1.51 4.81 -0.1 2.9 -0.1C0.98 -0.1 -0.57 1.51 -0.57 3.49L-0.57 31.23C-0.57 33.21 0.98 34.82 2.9 34.82C4.82 34.82 6.37 33.21 6.37 31.23L6.37 17.24L9.33 17.24C10.3 17.24 11.08 18.05 11.08 19.06L11.08 31.23C11.09 33.21 12.64 34.82 14.56 34.82C16.47 34.82 18.03 33.21 18.03 31.23L18.03 3.49C18.03 1.51 16.47 -0.1 14.56 -0.1Z" fill="#2C2C2C" fill-opacity="1.000000" fill-rule="evenodd"/>
</svg>
