<svg width="24.000000" height="24.000000" viewBox="0 0 24 24" fill="none" xmlns="http://www.w3.org/2000/svg" xmlns:xlink="http://www.w3.org/1999/xlink">
	<desc>
			Created with Pixso.
	</desc>
	<defs/>
	<path id="Vector" d="M22.22 -0.33L1.77 -0.33C0.79 -0.33 0 0.44 0 1.4L0 21.94C0 22.89 0.79 23.67 1.77 23.67L22.22 23.67C23.2 23.67 24 22.89 24 21.94L24 1.4C24 0.44 23.2 -0.33 22.22 -0.33ZM7.12 20.12L3.55 20.12L3.55 8.67L7.12 8.67L7.12 20.12ZM5.33 7.11C4.19 7.11 3.27 6.18 3.27 5.04C3.27 3.9 4.19 2.98 5.33 2.98C6.47 2.98 7.4 3.9 7.4 5.04C7.4 6.18 6.47 7.11 5.33 7.11ZM20.45 20.12L16.89 20.12L16.89 14.55C16.89 13.23 16.87 11.52 15.04 11.52C13.19 11.52 12.9 12.96 12.9 14.46L12.9 20.12L9.35 20.12L9.35 8.67L12.76 8.67L12.76 10.23L12.81 10.23C13.28 9.33 14.45 8.38 16.18 8.38C19.78 8.38 20.45 10.75 20.45 13.84L20.45 20.12Z" fill="#5754FF" fill-opacity="1.000000" fill-rule="nonzero"/>
</svg>
