<svg width="35" height="35" viewBox="0 0 35 35" fill="none" xmlns="http://www.w3.org/2000/svg">
<g id="Icon">
<g id="Shape">
<path fill-rule="evenodd" clip-rule="evenodd" d="M0.582031 4.87724C0.582031 4.09483 1.21629 3.46057 1.9987 3.46057H4.0365C5.98669 3.46057 7.68661 4.78784 8.1596 6.67979L8.4173 7.71057H26.9359C30.1786 7.71057 32.2213 11.1936 30.6486 14.0246L26.7134 21.1079C25.9638 22.4571 24.5417 23.2939 22.9982 23.2939H12.7109C10.7607 23.2939 9.06078 21.9666 8.58779 20.0747L5.41087 7.36698C5.2532 6.73633 4.68656 6.2939 4.0365 6.2939H1.9987C1.21629 6.2939 0.582031 5.65964 0.582031 4.87724ZM9.12563 10.5439L11.3365 19.3875C11.4942 20.0182 12.0608 20.4606 12.7109 20.4606H22.9982C23.5127 20.4606 23.9868 20.1816 24.2366 19.7319L28.1718 12.6486C28.6974 11.7025 28.014 10.5439 26.9359 10.5439H9.12563Z" fill="#5754FF"/>
<path d="M13.332 28.9606C13.332 30.5254 12.0635 31.7939 10.4987 31.7939C8.93389 31.7939 7.66536 30.5254 7.66536 28.9606C7.66536 27.3958 8.93389 26.1272 10.4987 26.1272C12.0635 26.1272 13.332 27.3958 13.332 28.9606Z" fill="#5754FF"/>
<path d="M27.4987 28.9606C27.4987 30.5254 26.2302 31.7939 24.6654 31.7939C23.1006 31.7939 21.832 30.5254 21.832 28.9606C21.832 27.3958 23.1006 26.1272 24.6654 26.1272C26.2302 26.1272 27.4987 27.3958 27.4987 28.9606Z" fill="#5754FF"/>
</g>
</g>
</svg>
