<svg width="48" height="50" viewBox="0 0 48 50" fill="none" xmlns="http://www.w3.org/2000/svg">
<path id="Vector" fill-rule="evenodd" clip-rule="evenodd" d="M33.2251 1.36426C31.9926 2.07603 28.9238 3.85278 26.4053 5.31274C16.1074 11.2825 10.1803 14.7156 5.65386 17.3327C3.02826 18.8507 0.803376 20.1825 0.709556 20.2921C0.55504 20.4727 0.539062 20.777 0.539062 23.5337C0.539062 26.1138 0.561372 26.5983 0.685784 26.7223C0.929443 26.9653 1.19424 26.9972 1.53279 26.8246C1.70962 26.7345 9.36915 22.29 18.5541 16.9481C27.7389 11.6061 35.3987 7.17498 35.5758 7.10115C35.8373 6.99225 36.9594 6.96699 41.5331 6.96699C46.2442 6.96699 47.1993 6.94436 47.3574 6.82924C47.5366 6.69868 47.548 6.53092 47.5747 3.64149C47.6023 0.662981 47.5981 0.585461 47.3971 0.330654L47.1914 0.0698242L41.3286 0.0700184L35.4658 0.0702129L33.2251 1.36426ZM35.5639 9.93112C35.1356 10.1062 34.6398 10.3742 34.4622 10.5268C33.8731 11.0326 33.8673 11.0892 33.8626 16.3656C33.8603 18.997 33.8939 21.1499 33.9374 21.1499C33.981 21.1499 34.2111 21.0531 34.4489 20.9347C34.8104 20.7548 35.0849 20.7134 36.1234 20.6822L37.3656 20.6447V15.3332C37.3656 9.371 37.3897 9.57947 36.7024 9.60132C36.5046 9.60764 35.9922 9.75598 35.5639 9.93112ZM25.1165 15.7594C24.603 15.9776 23.4063 16.6964 23.1083 16.9656C22.9561 17.1031 22.7478 17.3778 22.6455 17.576C22.4705 17.9153 22.4596 18.1987 22.4596 22.4089C22.4596 24.8687 22.4833 26.8814 22.5122 26.8814C22.5412 26.8814 22.7494 26.7849 22.975 26.6671C23.315 26.4894 23.6017 26.4437 24.6517 26.3999L25.9182 26.3471L25.9434 21.4098C25.9574 18.6943 25.9337 16.3379 25.891 16.1735C25.7767 15.7337 25.5112 15.5917 25.1165 15.7594ZM13.5923 22.4444C12.8313 22.8404 11.853 23.4433 11.6125 23.6643C11.0009 24.2262 11.015 24.1167 10.9829 28.5571C10.9668 30.7877 10.9765 32.6128 11.0042 32.6128C11.0321 32.6128 11.2426 32.5145 11.472 32.3942C11.8226 32.2104 12.0907 32.1679 13.1556 32.1271L14.4221 32.0785L14.4474 27.4243C14.4694 23.3777 14.4532 22.7404 14.3234 22.5428C14.1547 22.2861 13.9496 22.2585 13.5923 22.4444ZM35.2652 23.0361C35.0894 23.1642 35.0727 23.3409 35.0274 25.5519C34.9823 27.7543 34.9643 27.946 34.7839 28.1476C34.3565 28.6251 34.2998 28.6298 28.9658 28.6314C26.218 28.6323 23.9215 28.665 23.8625 28.7042C23.5746 28.896 23.5313 29.2457 23.5313 31.3847V33.5694L23.2815 33.8654C23.144 34.0282 22.8701 34.2061 22.6726 34.2608C22.4495 34.3226 20.4459 34.3605 17.3843 34.3608C12.733 34.3614 12.446 34.3714 12.2938 34.5391C12.1539 34.6931 12.1326 35.0033 12.1326 36.8801C12.1326 39.2025 12.0679 39.5663 11.6085 39.8291C11.4566 39.9159 10.0307 39.9599 6.21746 39.9957C1.40897 40.0408 1.02034 40.0568 0.859103 40.2177C0.69806 40.3782 0.683153 40.7205 0.658017 44.8396C0.631226 49.233 0.633468 49.2913 0.835624 49.5477L1.04031 49.8072H24.1717C47.1731 49.8072 47.304 49.8061 47.4978 49.6129C47.6907 49.4205 47.6926 49.2891 47.6926 36.3528C47.6926 23.4165 47.6907 23.2851 47.4978 23.0928C47.3072 22.9028 47.1731 22.8985 41.3786 22.8985C36.4204 22.8985 35.4235 22.9209 35.2652 23.0361Z" fill="#5754FF"/>
</svg>
