<svg width="53" height="58" viewBox="0 0 53 58" fill="none" xmlns="http://www.w3.org/2000/svg">
<path d="M17.1087 13.0216H5.77246V38.8087H18.2214V24.5309M22.6656 39.1321V8.34288M27.1913 39.1321V0.522949M31.5467 39.1321V12.1008M36.2184 21.1531V38.8087H48.0923V13.0216H37.0964" stroke="#232323"/>
<path d="M1.03262 55.445L2.38762 48.445H3.03262L4.92262 53.415L6.80762 48.445H7.45262L8.81262 55.445H7.95762L6.97262 50.365L5.19762 55.065H4.64262L2.86762 50.365L1.88762 55.445H1.03262ZM13.174 55.575C12.7007 55.575 12.2557 55.4816 11.839 55.295C11.4224 55.105 11.0557 54.8433 10.739 54.51C10.4224 54.1766 10.174 53.7916 9.99402 53.355C9.81402 52.915 9.72402 52.445 9.72402 51.945C9.72402 51.445 9.81402 50.9766 9.99402 50.54C10.174 50.1 10.4224 49.7133 10.739 49.38C11.0557 49.0466 11.4224 48.7866 11.839 48.6C12.2557 48.41 12.7007 48.315 13.174 48.315C13.6507 48.315 14.0974 48.41 14.514 48.6C14.9307 48.7866 15.2974 49.0466 15.614 49.38C15.9307 49.7133 16.1774 50.1 16.354 50.54C16.534 50.9766 16.624 51.445 16.624 51.945C16.624 52.445 16.534 52.915 16.354 53.355C16.1774 53.7916 15.9307 54.1766 15.614 54.51C15.2974 54.8433 14.9307 55.105 14.514 55.295C14.0974 55.4816 13.6507 55.575 13.174 55.575ZM13.174 54.735C13.5374 54.735 13.8757 54.6616 14.189 54.515C14.5057 54.3683 14.7824 54.1666 15.019 53.91C15.259 53.65 15.4457 53.3533 15.579 53.02C15.7157 52.6833 15.784 52.325 15.784 51.945C15.784 51.565 15.7157 51.2066 15.579 50.87C15.4424 50.53 15.254 50.2333 15.014 49.98C14.7774 49.7233 14.5007 49.5216 14.184 49.375C13.8707 49.2283 13.534 49.155 13.174 49.155C12.8107 49.155 12.4707 49.2283 12.154 49.375C11.8407 49.5216 11.564 49.725 11.324 49.985C11.0874 50.2416 10.9007 50.5383 10.764 50.875C10.6307 51.2083 10.564 51.565 10.564 51.945C10.564 52.3283 10.6324 52.6883 10.769 53.025C10.9057 53.3616 11.0924 53.6583 11.329 53.915C11.569 54.1716 11.8457 54.3733 12.159 54.52C12.4757 54.6633 12.814 54.735 13.174 54.735ZM17.8096 55.445V48.445H18.7196L22.2146 53.925V48.445H23.0546V55.445H22.1496L18.6496 49.965V55.445H17.8096ZM27.7049 55.575C27.2315 55.575 26.7865 55.4816 26.3699 55.295C25.9532 55.105 25.5865 54.8433 25.2699 54.51C24.9532 54.1766 24.7049 53.7916 24.5249 53.355C24.3449 52.915 24.2549 52.445 24.2549 51.945C24.2549 51.445 24.3449 50.9766 24.5249 50.54C24.7049 50.1 24.9532 49.7133 25.2699 49.38C25.5865 49.0466 25.9532 48.7866 26.3699 48.6C26.7865 48.41 27.2315 48.315 27.7049 48.315C28.1816 48.315 28.6282 48.41 29.0449 48.6C29.4616 48.7866 29.8282 49.0466 30.1449 49.38C30.4616 49.7133 30.7082 50.1 30.8849 50.54C31.0649 50.9766 31.1549 51.445 31.1549 51.945C31.1549 52.445 31.0649 52.915 30.8849 53.355C30.7082 53.7916 30.4616 54.1766 30.1449 54.51C29.8282 54.8433 29.4616 55.105 29.0449 55.295C28.6282 55.4816 28.1816 55.575 27.7049 55.575ZM27.7049 54.735C28.0682 54.735 28.4066 54.6616 28.7199 54.515C29.0366 54.3683 29.3132 54.1666 29.5499 53.91C29.7899 53.65 29.9766 53.3533 30.1099 53.02C30.2466 52.6833 30.3149 52.325 30.3149 51.945C30.3149 51.565 30.2466 51.2066 30.1099 50.87C29.9732 50.53 29.7849 50.2333 29.5449 49.98C29.3082 49.7233 29.0316 49.5216 28.7149 49.375C28.4016 49.2283 28.0649 49.155 27.7049 49.155C27.3415 49.155 27.0015 49.2283 26.6849 49.375C26.3716 49.5216 26.0949 49.725 25.8549 49.985C25.6182 50.2416 25.4315 50.5383 25.2949 50.875C25.1615 51.2083 25.0949 51.565 25.0949 51.945C25.0949 52.3283 25.1632 52.6883 25.2999 53.025C25.4365 53.3616 25.6232 53.6583 25.8599 53.915C26.0999 54.1716 26.3765 54.3733 26.6899 54.52C27.0066 54.6633 27.3449 54.735 27.7049 54.735ZM32.3404 55.445V48.445H33.1804V54.605H36.3154V55.445H32.3404ZM37.7686 55.445V48.445H38.6086V55.445H37.7686ZM45.4573 48.445V49.285H43.1273V55.445H42.2873V49.285H39.9623V48.445H45.4573ZM50.9661 48.445H51.8061V55.445H50.9661V52.115H47.5011V55.445H46.6611V48.445H47.5011V51.275H50.9661V48.445Z" fill="#232323"/>
</svg>
