<svg width="102.000000" height="101.000000" viewBox="0 0 102 101" fill="none" xmlns="http://www.w3.org/2000/svg" xmlns:xlink="http://www.w3.org/1999/xlink">
	<desc>
			Created with Pixso.
	</desc>
	<defs/>
	<path id="Vector" d="M-0.36 -0.5L101.64 -0.5L101.64 100.5L-0.36 100.5L-0.36 -0.5Z" fill="#FFFFFF" fill-opacity="1.000000" fill-rule="evenodd"/>
	<path id="Vector" d="M97.14 50C97.14 34.95 84.81 22.74 69.61 22.74C63.01 22.74 57.01 25.03 52.27 28.86C55.88 32.32 58.64 36.65 60.13 41.54L57.84 41.54C56.41 37.19 53.89 33.35 50.62 30.27C47.32 33.38 44.85 37.25 43.44 41.53L41.15 41.53C42.61 36.72 45.29 32.37 48.93 28.88C44.2 25.09 38.22 22.74 31.66 22.74C16.46 22.74 4.14 34.95 4.14 50C4.14 65.05 16.46 77.26 31.66 77.26C38.22 77.26 44.2 74.91 48.93 71.12C45.34 67.67 42.62 63.34 41.15 58.47L43.44 58.47C44.85 62.76 47.32 66.62 50.62 69.73C53.89 66.65 56.41 62.81 57.84 58.46L60.13 58.46C58.64 63.35 55.88 67.68 52.27 71.14C57.01 74.97 63.01 77.26 69.61 77.26C84.81 77.26 97.14 65.05 97.14 50Z" fill="#323232" fill-opacity="1.000000" fill-rule="evenodd"/>
	<path id="Vector" d="M76.91 56.39L78.81 46.3L81.21 46.3L81.46 47.29C81.89 46.8 82.72 46.3 84.11 46.3L83.36 48.93C82.68 48.93 81.39 48.75 80.56 51.77L79.7 56.39L76.91 56.39ZM40.07 43.74L42.84 43.74L42.27 46.41L43.76 46.41L43.27 48.59L41.85 48.59L41.07 52.67C40.92 53.44 41 54.15 42.59 53.9L42.42 55.94C41.81 56.32 41 56.43 40.36 56.43C39.72 56.43 37.62 56.04 38.15 53.3L40.07 43.74ZM52.07 51.89C52.39 50.28 53.14 46.27 48.28 46.27C43.8 46.27 43.23 50.66 43.13 51.3C43.02 51.93 42.95 56.39 47.74 56.39C48.91 56.43 50.62 56.29 51.29 55.94L51.72 53.86C51.29 53.97 49.7 54.11 48.59 54.11C47.49 54.11 45.72 54.18 46.04 51.89L52.07 51.89ZM37.45 48.66L38.08 46.62C36.77 46.13 35.74 46.23 35.35 46.23C34.96 46.23 31.63 46.19 31.12 48.62C30.73 50.49 31.42 51.26 32.08 51.54C33.15 52 33.75 52.42 34.32 52.7C35.02 53.05 34.89 54.22 33.97 54.22C33.54 54.22 31.69 54.43 30.31 53.97L29.92 56.04C31.2 56.4 32.23 56.4 33.19 56.4C33.86 56.4 37.16 56.57 37.62 53.55C37.85 52.07 37.2 51.4 36.66 51.09C36.13 50.73 35.24 50.24 34.68 50C34.11 49.75 33.68 48.8 34.71 48.52C35.35 48.45 36.66 48.45 37.45 48.66ZM19.48 56.39L21.79 44.23L17.24 44.23L13.87 51.61L13.33 44.23L8.9 44.23L6.52 56.39L9.29 56.39L10.99 47.61L11.74 56.39L14.36 56.39L18.24 47.82L16.6 56.39L19.48 56.39ZM22.53 46.59L22.11 48.77C22.78 48.7 24.59 48.41 25.55 48.45C26.51 48.48 27.57 48.34 27.25 49.86C26.54 49.93 21.57 49.15 20.79 53.37C20.47 55.45 22.28 56.5 23.7 56.43C25.12 56.36 25.51 56.18 26.01 55.83L26.37 56.39L28.96 56.39L30.06 50.91C30.34 49.54 30.8 46.23 26.15 46.23C25.3 46.27 24.34 46.23 22.53 46.59ZM67.41 47.04C66.7 46.62 66.21 46.55 65.28 46.55C64.36 46.55 62.3 47.42 61.91 49.89C61.45 52.81 63.47 54.25 66.31 53.3L67.13 55.76C66.21 56.18 65.28 56.39 63.76 56.39C60.88 56.39 57.76 53.86 59.18 48.73C60.22 44.95 63.51 43.56 65.43 43.63C67.7 43.72 68.51 44.48 69.23 45.25L67.41 47.04ZM91.03 47.46C90.49 47.08 90.18 46.27 88.86 46.27C87.33 46.27 84.96 45.99 83.61 50.56C82.7 53.61 84.53 56.4 86.52 56.4C87.44 56.36 88.36 55.97 88.93 55.59L89.29 56.4L92.27 56.4L94.68 43.6L91.77 43.6L91.03 47.46ZM69.4 46.59L68.98 48.77C69.65 48.7 71.46 48.41 72.42 48.45C73.38 48.48 74.45 48.34 74.12 49.86C73.41 49.93 68.44 49.15 67.66 53.37C67.34 55.45 69.15 56.5 70.57 56.43C72 56.36 72.38 56.18 72.88 55.83L73.24 56.39L75.83 56.39L76.93 50.91C77.21 49.54 77.68 46.23 73.02 46.23C72.17 46.27 71.21 46.23 69.4 46.59Z" fill="#FFFFFF" fill-opacity="1.000000" fill-rule="evenodd"/>
	<path id="Vector" d="M46.22 50.07L49.66 50.07C49.84 49.08 49.52 48.24 48.42 48.24C47.32 48.24 46.54 48.8 46.22 50.07ZM26.79 51.89C26.33 51.82 25.3 51.54 24.41 52.14C23.53 52.74 23.28 53.79 24.2 54.14C25.09 54.48 26.4 53.9 26.58 52.98L26.79 51.89ZM90.03 51.58C90.32 50.66 90.16 49.52 89.85 49.12C89 47.99 87.04 48.88 86.45 51.09C86.06 52.53 86.91 53.62 87.87 53.62C88.9 53.62 89.54 52.81 90.03 51.58ZM73.66 51.89C73.2 51.82 72.17 51.54 71.28 52.14C70.4 52.74 70.15 53.79 71.07 54.14C71.96 54.48 73.27 53.9 73.45 52.98L73.66 51.89Z" fill="#323232" fill-opacity="1.000000" fill-rule="evenodd"/>
	<path id="Vector" d="M52.15 56.39L54.04 46.41L56.41 46.41L56.66 47.39C57.09 46.9 57.91 46.41 59.29 46.41L58.58 49.05C57.91 49.05 56.59 48.84 55.78 51.82L54.92 56.39L52.15 56.39Z" fill="#FFFFFF" fill-opacity="1.000000" fill-rule="evenodd"/>
</svg>
