<svg width="56.000000" height="56.000000" viewBox="0 0 56 56" fill="none" xmlns="http://www.w3.org/2000/svg" xmlns:xlink="http://www.w3.org/1999/xlink">
	<desc>
			Created with Pixso.
	</desc>
	<defs>
		<clipPath id="clip167_628">
			<rect id="check-circle" width="24.000000" height="24.000000" transform="translate(16.000000 16.000000)" fill="white" fill-opacity="0"/>
		</clipPath>
	</defs>
	<rect id="Featured icon" rx="24.000000" width="48.000000" height="48.000000" transform="translate(4.000000 4.000000)" fill="#D1FADF" fill-opacity="1.000000"/>
	<rect id="check-circle" width="24.000000" height="24.000000" transform="translate(16.000000 16.000000)" fill="#FFFFFF" fill-opacity="0"/>
	<g clip-path="url(#clip167_628)">
		<path id="Icon" d="M38 27.08L38 28C37.99 30.15 37.3 32.25 36 33.98C34.71 35.7 32.9 36.97 30.83 37.58C28.76 38.19 26.55 38.12 24.53 37.37C22.51 36.62 20.78 35.24 19.61 33.43C18.43 31.62 17.87 29.48 18.02 27.33C18.16 25.18 18.99 23.13 20.39 21.49C21.79 19.85 23.69 18.71 25.79 18.24C27.89 17.76 30.1 17.98 32.06 18.86M38 20L28 30.01L25 27.01" stroke="#039855" stroke-opacity="1.000000" stroke-width="2.000000" stroke-linejoin="round"/>
	</g>
	<rect id="Featured icon" rx="24.000000" width="48.000000" height="48.000000" transform="translate(4.000000 4.000000)" stroke="#ECFDF3" stroke-opacity="1.000000" stroke-width="8.000000"/>
</svg>
