<svg width="64" height="52" viewBox="0 0 64 52" fill="none" xmlns="http://www.w3.org/2000/svg">
<path id="Vector" d="M41.5224 0.817383L28.5905 9.11806L29.9013 9.83583L41.4066 2.45068L60.9214 13.5046L49.728 20.6893L50.2733 20.9878V21.8985L59.0406 16.2707L60.8807 17.3131L50.2731 24.1218V25.6808L58.8689 20.1633L60.8807 21.3031L50.2731 28.1117V29.6708L58.8689 24.1533L60.8807 25.293L50.2731 32.1017V33.6607L63.5769 25.1212L60.2749 23.251L63.5768 21.1315L60.2748 19.2611L63.5766 17.1416L60.4464 15.3684L63.6172 13.3329L41.5223 0.817383H41.5224ZM45.6541 6.76753C42.8562 8.17141 39.1294 8.40894 36.5055 7.35044L31.3759 10.643L48.2532 19.882L53.1184 16.7594C51.2019 15.2464 51.3615 12.989 53.5097 11.2175L45.654 6.76753H45.6541ZM28.2864 11.6809L18.8854 17.8111L36.9207 28.1934L37.0976 28.0803C37.43 27.8662 37.8995 27.563 38.4597 27.2008C39.5795 26.4769 41.0614 25.5171 42.5391 24.5596C44.6673 23.1804 45.764 22.4689 46.7838 21.8074L28.2864 11.6809ZM43.6428 11.8365C43.643 11.8365 43.6431 11.8365 43.6432 11.8365C44.0686 11.8391 44.4585 11.9302 44.7498 12.0951C44.9192 12.1911 45.0507 12.3095 45.1366 12.4435C45.2225 12.5775 45.2612 12.7246 45.2505 12.8763C45.2397 13.028 45.1798 13.1813 45.074 13.3275C44.9682 13.4738 44.8187 13.61 44.634 13.7286C44.4494 13.8471 44.2332 13.9455 43.9978 14.0183C43.7624 14.091 43.5123 14.1367 43.262 14.1526C43.0116 14.1685 42.7658 14.1544 42.5386 14.1111C42.3114 14.0678 42.1073 13.9961 41.9379 13.9001C41.5957 13.7063 41.4157 13.4253 41.4374 13.1191C41.4591 12.8128 41.6807 12.5063 42.0536 12.267C42.2653 12.131 42.5182 12.0217 42.7934 11.9471C43.0686 11.8726 43.359 11.8348 43.6428 11.8365ZM14.5939 18.1025L0.575719 27.1002L3.706 28.8734L0.535156 30.9088L3.83713 32.7791L0.535156 34.8988L3.83713 36.7691L0.535156 38.8887L22.6301 51.4042L35.9699 42.8413V41.2826L22.7459 49.7708L3.23121 38.7168L5.12703 37.4999L22.6301 47.4142L35.9699 38.8515V37.2928L22.7459 45.781L3.23121 34.727L5.12703 33.5101L22.6301 43.4243L35.9699 34.8617V33.303L22.7459 41.7912L3.23121 30.7371L4.99604 29.604L22.6709 39.6158L35.9699 31.0792V30.4076L35.2411 29.9881L22.7862 37.9824L3.27204 26.9285L15.8745 18.8392L14.5938 18.1021L14.5939 18.1025ZM17.315 19.6691L11.0749 23.6742C12.9914 25.1869 12.8318 27.4443 10.6837 29.2161L18.5393 33.6661C21.3371 32.262 25.0636 32.0246 27.6876 33.083L33.8006 29.1592L17.3147 19.669L17.315 19.6691ZM47.8792 23.9502C46.8094 24.644 45.866 25.2565 43.8411 26.5686C42.4811 27.4503 41.1205 28.3313 39.7596 29.2116C39.1987 29.574 38.7282 29.8779 38.3926 30.0936C38.3807 30.1016 38.3758 30.1042 38.3641 30.1118V41.5392L47.8794 35.1438L47.8792 23.9502ZM21.1488 26.2749C21.5742 26.2776 21.9642 26.3689 22.2553 26.5339C22.5975 26.7277 22.7775 27.0086 22.7558 27.3149C22.7341 27.6212 22.5125 27.9277 22.1396 28.167C21.7668 28.4063 21.2733 28.5588 20.7678 28.591C20.2622 28.6231 19.786 28.5324 19.4438 28.3386C19.1017 28.1448 18.9216 27.8638 18.9433 27.5575C18.965 27.2513 19.1867 26.9448 19.5595 26.7054C19.7713 26.5695 20.0242 26.4602 20.2994 26.3857C20.5746 26.3112 20.8649 26.2733 21.1488 26.2751V26.2749Z" fill="#5754FF"/>
</svg>
