<svg width="210" height="210" viewBox="0 0 210 210" fill="none" xmlns="http://www.w3.org/2000/svg">
<path d="M208 105C208 162.438 161.438 209 104 209C46.5624 209 0 162.438 0 105C0 47.5624 46.5624 1 104 1C161.438 1 208 47.5624 208 105ZM16.3853 105C16.3853 153.388 55.6118 192.615 104 192.615C152.388 192.615 191.615 153.388 191.615 105C191.615 56.6118 152.388 17.3853 104 17.3853C55.6118 17.3853 16.3853 56.6118 16.3853 105Z" fill="#EFEFEF"/>
<path d="M209 105C209 162.438 162.438 209 105 209C47.5624 209 1 162.438 1 105C1 47.5624 47.5624 1 105 1C162.438 1 209 47.5624 209 105ZM17.3853 105C17.3853 153.388 56.6118 192.615 105 192.615C153.388 192.615 192.615 153.388 192.615 105C192.615 56.6118 153.388 17.3853 105 17.3853C56.6118 17.3853 17.3853 56.6118 17.3853 105Z" fill="#5754FF"/>
<path d="M99.0228 121.686L145.533 75.6303C146.631 74.5434 147.935 74 149.446 74C150.957 74 152.26 74.5434 153.354 75.6303C154.451 76.7172 155 78.0087 155 79.5049C155 81.0012 154.451 82.2909 153.354 83.3742L102.864 133.37C101.767 134.457 100.486 135 99.0228 135C97.5594 135 96.2789 134.457 95.1813 133.37L71.5831 110.002C70.4855 108.915 69.9586 107.624 70.0025 106.128C70.0464 104.631 70.619 103.342 71.7203 102.258C72.8179 101.171 74.1222 100.628 75.6332 100.628C77.1442 100.628 78.4467 101.171 79.5406 102.258L99.0228 121.686Z" fill="#5754FF"/>
</svg>
