<svg width="210" height="210" viewBox="0 0 210 210" fill="none" xmlns="http://www.w3.org/2000/svg">
<path d="M208 105C208 162.438 161.438 209 104 209C46.5624 209 0 162.438 0 105C0 47.5624 46.5624 1 104 1C161.438 1 208 47.5624 208 105ZM16.3853 105C16.3853 153.388 55.6118 192.615 104 192.615C152.388 192.615 191.615 153.388 191.615 105C191.615 56.6118 152.388 17.3853 104 17.3853C55.6118 17.3853 16.3853 56.6118 16.3853 105Z" fill="#EFEFEF"/>
<path d="M104.998 209.654C91.3406 209.568 77.8342 206.792 65.2496 201.486C52.6651 196.18 41.249 188.447 31.653 178.728C22.057 169.01 14.4692 157.497 9.32269 144.846C4.17618 132.196 1.57181 118.655 1.65827 104.998L18.0433 105.102C17.9704 116.607 20.1645 128.014 24.5001 138.672C28.8358 149.329 35.2282 159.029 43.3123 167.216C51.3964 175.403 61.0139 181.918 71.6157 186.388C82.2176 190.858 93.596 193.196 105.102 193.269L104.998 209.654Z" fill="#5754FF"/>
</svg>
