<svg width="210" height="210" viewBox="0 0 210 210" fill="none" xmlns="http://www.w3.org/2000/svg">
<path d="M208 105C208 162.438 161.438 209 104 209C46.5624 209 0 162.438 0 105C0 47.5624 46.5624 1 104 1C161.438 1 208 47.5624 208 105ZM16.3853 105C16.3853 153.388 55.6118 192.615 104 192.615C152.388 192.615 191.615 153.388 191.615 105C191.615 56.6118 152.388 17.3853 104 17.3853C55.6118 17.3853 16.3853 56.6118 16.3853 105Z" fill="#EFEFEF"/>
<path d="M103.998 209.654C83.429 209.524 63.3606 203.297 46.3306 191.762C29.3006 180.226 16.0737 163.899 8.32269 144.846C0.571643 125.793 -1.35548 104.87 2.78502 84.7216C6.92551 64.5734 16.9477 46.1054 31.5841 31.6531C46.2206 17.2008 64.8139 7.4133 85.0129 3.52824C105.212 -0.35683 126.109 1.83506 145.063 9.82672C164.016 17.8184 180.174 31.2509 191.493 48.4256C202.812 65.6003 208.784 85.7459 208.654 106.315L192.269 106.211C192.379 88.8828 187.348 71.9112 177.812 57.4424C168.276 42.9735 154.664 31.6574 138.697 24.9248C122.729 18.1922 105.124 16.3457 88.1078 19.6186C71.0911 22.8916 55.4272 31.1371 43.0967 43.3124C30.7663 55.4877 22.3231 71.046 18.8349 88.0199C15.3468 104.994 16.9703 122.621 23.5001 138.672C30.03 154.723 41.173 168.477 55.5199 178.196C69.8668 187.914 86.7733 193.16 104.102 193.269L103.998 209.654Z" fill="#5754FF"/>
</svg>
