<svg width="208.000000" height="208.000000" viewBox="0 0 208 208" fill="none" xmlns="http://www.w3.org/2000/svg" xmlns:xlink="http://www.w3.org/1999/xlink">
	<desc>
			Created with Pixso.
	</desc>
	<defs/>
	<path id="Форма 1" d="M104 208C161.38 208 208 161.38 208 104C208 46.61 161.38 0 104 0C46.61 0 0 46.61 0 104C0 161.38 46.61 208 104 208ZM171.1 47.69C183.9 62.92 191.61 82.57 191.61 104C191.6 123.89 184.89 143.9 171.1 160.3C158.32 175.55 140.31 186.56 119.2 190.26C99.61 193.73 78.75 190.59 60.2 179.85C42.96 169.92 28.99 154.1 21.68 133.95C14.87 115.26 14.33 94.16 21.68 74.03C28.48 55.33 41.63 38.83 60.2 28.14C77.42 18.18 98.11 13.99 119.21 17.73C138.8 21.17 157.34 31.26 171.1 47.69Z" fill="#5754FF" fill-opacity="1.000000" fill-rule="evenodd"/>
	<path id="Vector" d="M95.02 120.68L141.53 74.63C142.63 73.54 143.93 73 145.44 73C146.95 73 148.25 73.54 149.35 74.63C150.45 75.71 151 77 151 78.5C151 80 150.45 81.29 149.35 82.37L98.86 132.37C97.76 133.45 96.48 134 95.02 134C93.55 134 92.27 133.45 91.17 132.37L67.58 109C66.48 107.91 65.95 106.62 66 105.12C66.04 103.63 66.61 102.34 67.71 101.25C68.81 100.17 70.12 99.62 71.63 99.62C73.14 99.62 74.44 100.17 75.53 101.25L95.02 120.68Z" fill="#5754FF" fill-opacity="1.000000" fill-rule="evenodd"/>
</svg>
