<svg width="210" height="210" viewBox="0 0 210 210" fill="none" xmlns="http://www.w3.org/2000/svg">
<path d="M208 105C208 162.438 161.438 209 104 209C46.5624 209 0 162.438 0 105C0 47.5624 46.5624 1 104 1C161.438 1 208 47.5624 208 105ZM16.3853 105C16.3853 153.388 55.6118 192.615 104 192.615C152.388 192.615 191.615 153.388 191.615 105C191.615 56.6118 152.388 17.3853 104 17.3853C55.6118 17.3853 16.3853 56.6118 16.3853 105Z" fill="#EFEFEF"/>
<path d="M104.998 209.654C77.4158 209.48 51.0329 198.355 31.653 178.728C12.2731 159.102 1.48366 132.58 1.65827 104.998C1.83289 77.416 12.9572 51.0331 32.5841 31.6531C52.211 12.2732 78.7326 1.48378 106.315 1.65839L106.211 18.0434C82.9744 17.8963 60.6313 26.9858 44.0967 43.3124C27.5621 59.639 18.1904 81.8653 18.0433 105.102C17.8962 128.338 26.9857 150.681 43.3123 167.216C59.6389 183.75 81.8651 193.122 105.102 193.269L104.998 209.654Z" fill="#5754FF"/>
</svg>
