<svg width="26.000000" height="27.000000" viewBox="0 0 26 27" fill="none" xmlns="http://www.w3.org/2000/svg" xmlns:xlink="http://www.w3.org/1999/xlink">
	<desc>
			Created with Pixso.
	</desc>
	<defs/>
	<path id="Vector" d="M0.32 -0.42C-0.18 -0.29 -0.6 0.07 -0.84 0.56L-0.97 0.84L-0.98 12C-0.99 23.11 -0.99 23.15 -0.91 23.42C-0.76 23.93 -0.35 24.35 0.19 24.57L0.42 24.66L5.77 24.67L11.13 24.68L11.13 24.23L11.13 23.78L5.9 23.78C1.63 23.78 0.64 23.77 0.51 23.73C0.15 23.6 -0.05 23.33 -0.08 22.93C-0.11 22.53 0.14 22.15 0.52 22.03C0.61 22.01 0.99 21.99 1.46 21.99C2.32 21.99 2.43 21.96 2.54 21.74C2.59 21.64 2.6 20.56 2.6 12.36L2.6 3.1L8.21 3.1L13.82 3.1L13.82 2.65L13.82 2.21L8.21 2.21L2.6 2.21L2.6 1.05C2.6 0.04 2.59 -0.11 2.53 -0.24C2.49 -0.32 2.41 -0.4 2.36 -0.43C2.21 -0.51 0.62 -0.5 0.32 -0.42ZM1.7 10.75L1.7 21.09L1.12 21.09C0.55 21.09 0.34 21.12 -0.02 21.27C-0.09 21.3 -0.09 20.81 -0.09 11.2L-0.09 1.09L0 0.91C0.09 0.71 0.32 0.51 0.5 0.46C0.57 0.44 0.87 0.42 1.17 0.42L1.7 0.41L1.7 10.75Z" fill="#000000" fill-opacity="1.000000" fill-rule="nonzero"/>
	<path id="Vector" d="M16.09 -0.44C15.81 -0.38 15.45 -0.16 15.22 0.1C14.96 0.37 14.83 0.64 14.76 1.01C14.72 1.18 14.72 2.98 14.72 7.41L14.74 13.57L15.4 14.69C16.19 16 16.22 16.05 16.4 16.11C16.57 16.17 16.79 16.09 16.89 15.95C16.96 15.85 17.8 14.45 18.16 13.85L18.33 13.57L18.33 9.22C18.34 6.83 18.33 3.97 18.31 2.86L18.28 0.84L18.15 0.56C17.92 0.07 17.49 -0.29 16.98 -0.43C16.75 -0.49 16.33 -0.5 16.09 -0.44ZM16.9 0.49C16.99 0.53 17.12 0.62 17.18 0.7C17.39 0.96 17.42 1.07 17.41 1.87L17.41 2.21L16.51 2.21L15.6 2.21L15.62 1.64C15.64 1.03 15.69 0.88 15.93 0.65C16.18 0.41 16.58 0.35 16.9 0.49ZM17.42 3.38C17.43 3.53 17.43 5.75 17.43 8.32L17.43 12.99L16.53 12.99L15.63 12.99L15.62 8.05L15.62 3.1L16.51 3.1L17.4 3.1L17.42 3.38ZM17.04 13.92C17.04 13.96 16.56 14.81 16.53 14.81C16.51 14.81 16.02 13.96 16.02 13.92C16.02 13.89 16.19 13.87 16.53 13.87C16.88 13.87 17.04 13.88 17.04 13.92Z" fill="#000000" fill-opacity="1.000000" fill-rule="nonzero"/>
	<path id="Vector" d="M19.24 2.65L19.24 3.1L21.26 3.1L23.28 3.1L23.28 7.37L23.28 11.63L23.73 11.63L24.18 11.63L24.18 7.1C24.18 2.12 24.19 2.4 23.93 2.27C23.83 2.21 23.49 2.21 21.53 2.21L19.24 2.21L19.24 2.65Z" fill="#000000" fill-opacity="1.000000" fill-rule="nonzero"/>
	<path id="Vector" d="M25.4 11.66C25.33 11.67 23.06 13.91 18.27 18.7C14.41 22.56 11.22 25.77 11.18 25.83C11.11 25.97 11.11 26.08 11.19 26.23C11.32 26.49 10.79 26.47 18.55 26.47C26.38 26.47 25.79 26.5 25.92 26.21C25.96 26.09 25.97 25.02 25.97 19.03C25.97 12.53 25.97 11.98 25.9 11.87C25.81 11.71 25.61 11.62 25.4 11.66ZM25.08 19.4L25.08 25.58L18.87 25.58L12.66 25.58L18.85 19.4C22.25 16 25.04 13.22 25.06 13.22C25.07 13.22 25.08 16 25.08 19.4Z" fill="#000000" fill-opacity="1.000000" fill-rule="nonzero"/>
	<path id="Vector" d="M22.59 18.47C22.53 18.5 21.47 19.55 20.23 20.79C18.73 22.29 17.96 23.09 17.92 23.19C17.86 23.31 17.86 23.35 17.91 23.46C17.94 23.54 18.01 23.64 18.06 23.68C18.15 23.76 18.22 23.76 20.52 23.77C22.23 23.78 22.92 23.77 23 23.74C23.07 23.71 23.15 23.63 23.2 23.56C23.28 23.43 23.28 23.36 23.28 21.1C23.28 18.58 23.29 18.62 23.07 18.46C22.95 18.38 22.71 18.38 22.59 18.47ZM22.37 22.87C22.36 22.88 21.7 22.88 20.9 22.88L19.44 22.87L20.9 21.41L22.36 19.95L22.38 21.4C22.38 22.2 22.38 22.87 22.37 22.87Z" fill="#000000" fill-opacity="1.000000" fill-rule="nonzero"/>
</svg>
