<svg width="19.000000" height="19.000000" viewBox="0 0 19 19" fill="none" xmlns="http://www.w3.org/2000/svg" xmlns:xlink="http://www.w3.org/1999/xlink">
	<desc>
			Created with Pixso.
	</desc>
	<defs>
		<clipPath id="clip711_62">
			<rect id="solar:share-linear" width="19.000000" height="19.000000" fill="white" fill-opacity="0"/>
		</clipPath>
	</defs>
	<rect id="solar:share-linear" width="19.000000" height="19.000000" fill="#FFFFFF" fill-opacity="0"/>
	<g clip-path="url(#clip711_62)">
		<path id="Vector" d="M6.54 10.89C6.17 11.27 5.67 11.47 5.14 11.47C4.62 11.47 4.11 11.27 3.74 10.89C3.37 10.52 3.16 10.02 3.16 9.49C3.16 8.97 3.37 8.47 3.74 8.1C4.11 7.72 4.62 7.52 5.14 7.52C5.67 7.52 6.17 7.72 6.54 8.1C6.91 8.47 7.12 8.97 7.12 9.49C7.12 10.02 6.91 10.52 6.54 10.89Z" stroke="#FFFFFF" stroke-opacity="1.000000" stroke-width="1.500000"/>
		<path id="Vector" d="M11.08 5.14L7.12 7.91M11.08 13.85L7.12 11.08" stroke="#FFFFFF" stroke-opacity="1.000000" stroke-width="1.500000"/>
		<path id="Vector" d="M14.46 16.04C14.09 16.41 13.58 16.62 13.06 16.62C12.53 16.62 12.03 16.41 11.66 16.04C11.29 15.67 11.08 15.17 11.08 14.64C11.08 14.12 11.29 13.61 11.66 13.24C12.03 12.87 12.53 12.66 13.06 12.66C13.58 12.66 14.09 12.87 14.46 13.24C14.83 13.61 15.04 14.12 15.04 14.64C15.04 15.17 14.83 15.67 14.46 16.04ZM14.46 5.75C14.09 6.12 13.58 6.33 13.06 6.33C12.53 6.33 12.03 6.12 11.66 5.75C11.29 5.38 11.08 4.87 11.08 4.35C11.08 3.82 11.29 3.32 11.66 2.95C12.03 2.58 12.53 2.37 13.06 2.37C13.58 2.37 14.09 2.58 14.46 2.95C14.83 3.32 15.04 3.82 15.04 4.35C15.04 4.87 14.83 5.38 14.46 5.75Z" stroke="#FFFFFF" stroke-opacity="1.000000" stroke-width="1.500000"/>
	</g>
</svg>
