<svg width="108.000000" height="54.000000" viewBox="0 0 108 54" fill="none" xmlns="http://www.w3.org/2000/svg" xmlns:xlink="http://www.w3.org/1999/xlink">
	<desc>
			Created with Pixso.
	</desc>
	<defs/>
	<path id="Vector" d="M18.29 -0.55C18.42 -0.54 18.63 -0.54 18.77 -0.55C18.9 -0.56 18.79 -0.57 18.53 -0.57C18.26 -0.57 18.15 -0.56 18.29 -0.55Z" fill="#323232" fill-opacity="1.000000" fill-rule="evenodd"/>
	<path id="Vector" d="M18.33 -0.34C18.32 -0.28 18.3 4.91 18.3 11.18C18.3 17.45 18.29 22.59 18.28 22.59C18.27 22.59 14.67 20.4 10.3 17.72C5.92 15.04 1.77 12.5 1.06 12.07L-0.23 11.29L-0.23 26.52C-0.23 34.9 -0.21 41.75 -0.18 41.74C-0.16 41.72 0.47 41.34 1.21 40.9C1.96 40.44 3.59 39.45 4.83 38.69C7.96 36.77 10.49 35.22 13.5 33.39C14.91 32.53 16.57 31.51 17.19 31.14C17.8 30.76 18.31 30.45 18.33 30.45C18.35 30.45 18.36 35.61 18.36 41.91C18.36 48.22 18.37 53.4 18.39 53.42C18.41 53.43 18.48 53.42 18.55 53.39C18.73 53.29 27.22 48.12 32.28 45.02C36.77 42.26 38.48 41.22 41.35 39.46C43.27 38.29 43.55 38.11 43.55 38.08C43.54 38.06 41.94 37.07 39.97 35.88C36.85 33.98 33.61 32 26.75 27.79C25.1 26.78 24.94 26.67 24.94 26.53C24.94 26.39 25.2 26.22 28.16 24.41C39.72 17.36 43.6 14.98 43.61 14.96C43.61 14.94 43.5 14.86 43.37 14.78C43.23 14.7 41.54 13.66 39.6 12.47C37.65 11.28 33.86 8.95 31.15 7.31C28.45 5.66 25.26 3.71 24.06 2.98C22.86 2.25 21.1 1.17 20.12 0.59C18.52 -0.38 18.36 -0.46 18.33 -0.34ZM25.49 11.6C26.78 12.4 30.07 14.38 30.49 14.63C30.74 14.78 30.95 14.92 30.95 14.95C30.95 15 30.04 15.57 26.2 17.9L24.91 18.68L24.91 14.99C24.91 12.95 24.92 11.28 24.94 11.28C24.95 11.28 25.2 11.42 25.49 11.6ZM7.6 23.83C8.16 24.17 9.38 24.92 10.32 25.48C11.26 26.05 12.03 26.53 12.02 26.55C12.02 26.58 6.53 29.95 6.44 29.98C6.4 30 6.38 28.77 6.38 26.55C6.38 23.27 6.39 23.1 6.48 23.15C6.53 23.18 7.04 23.48 7.6 23.83ZM27.26 35.85C30.32 37.71 30.74 37.98 30.83 38.05C30.89 38.1 30.56 38.32 29.39 39.05C28.02 39.9 25.29 41.56 25.02 41.7C24.91 41.76 24.91 41.7 24.91 38.1C24.91 35.09 24.92 34.46 24.98 34.48C25.03 34.5 26.05 35.11 27.26 35.85Z" fill="#323232" fill-opacity="1.000000" fill-rule="evenodd"/>
	<path id="Vector" d="M75.15 9.14C71.88 9.2 71.33 9.22 70.78 9.35C68.23 9.94 66.22 11.6 65.01 14.13C64.27 15.67 63.98 17.07 63.98 19.06C63.97 23.52 65.7 26.44 68.97 27.5C69.71 27.74 70.27 27.84 71.13 27.9C74.05 28.09 76.68 27.11 78.15 25.27C78.82 24.45 79.28 23.37 79.42 22.32C79.5 21.69 79.46 20.42 79.33 19.85C78.78 17.31 77.11 15.73 74.5 15.26C73.79 15.13 72.39 15.13 71.72 15.26C70.74 15.45 69.73 15.89 68.97 16.47C68.52 16.81 68.5 16.79 68.69 16.17C69.11 14.79 70.21 13.71 71.68 13.23L72.16 13.07L74.68 13.05L77.19 13.03L77.7 12.11C78.63 10.4 79.31 9.15 79.31 9.11C79.31 9.07 78.5 9.08 75.15 9.14ZM72.36 18.71C73.49 18.91 74.24 19.64 74.48 20.75C74.81 22.35 73.98 23.83 72.56 24.2C71.88 24.38 71.05 24.29 70.43 23.97C70.05 23.78 69.58 23.31 69.39 22.93C68.7 21.57 69.04 19.89 70.14 19.13C70.46 18.91 70.93 18.75 71.4 18.69C71.92 18.63 71.89 18.63 72.36 18.71Z" fill="#323232" fill-opacity="1.000000" fill-rule="evenodd"/>
	<path id="Vector" d="M56.58 13.61C54.32 13.82 52.2 14.82 50.94 16.27C50.16 17.18 49.63 18.19 49.39 19.25C49.25 19.85 49.23 21.33 49.33 21.97C49.59 23.44 50.18 24.6 51.18 25.58C53.33 27.72 57 28.42 60.31 27.33C60.88 27.15 61.87 26.71 61.93 26.61C61.95 26.59 61.63 25.95 61.22 25.21C60.21 23.37 60.19 23.32 60.14 23.32C60.12 23.32 60 23.37 59.89 23.43C59.58 23.58 58.85 23.82 58.26 23.95C56.69 24.29 55.18 23.86 54.3 22.81C53.69 22.08 53.46 20.96 53.71 19.97C53.89 19.3 54.09 18.94 54.54 18.49C55.23 17.79 55.94 17.53 57.16 17.53C58.05 17.53 58.47 17.62 59.51 18.05C59.85 18.19 60.17 18.31 60.22 18.31C60.3 18.32 60.57 17.87 61.26 16.66C61.77 15.74 62.18 14.96 62.17 14.92C62.09 14.73 60.78 14.09 60.02 13.88C59.09 13.62 57.64 13.5 56.58 13.61Z" fill="#323232" fill-opacity="1.000000" fill-rule="evenodd"/>
	<path id="Vector" d="M82.71 13.92L81.68 13.94L81.68 20.67L81.68 27.39L84.08 27.39L86.48 27.39L86.48 22.67L86.48 17.95L88.74 17.95L91 17.95L91 22.67L91 27.39L93.37 27.39L95.74 27.39L95.74 20.67L95.74 13.94L93.92 13.94C92.92 13.94 90.22 13.93 87.92 13.92C85.62 13.91 83.28 13.91 82.71 13.92Z" fill="#323232" fill-opacity="1.000000" fill-rule="evenodd"/>
	<path id="Vector" d="M82.1 31.71C81.99 31.79 81.71 31.88 81.42 31.94C80.51 32.12 80.06 32.43 79.73 33.12C79.49 33.62 79.4 34.14 79.43 34.99C79.45 35.58 79.47 35.72 79.59 35.99C79.8 36.42 80.04 36.69 80.42 36.88C80.69 37.01 80.81 37.04 81.2 37.04C81.73 37.03 82.04 36.91 82.41 36.58C83.06 35.99 83.17 34.86 82.64 34.14C82.14 33.45 80.92 33.4 80.25 34.05L80.04 34.25L80.12 33.9C80.26 33.31 80.51 32.95 80.91 32.75C81.01 32.7 81.3 32.62 81.56 32.57C82.06 32.47 82.56 32.25 82.61 32.12C82.64 32.05 82.36 31.58 82.3 31.58C82.28 31.58 82.19 31.65 82.1 31.71ZM81.59 34.24C82.31 34.45 82.53 35.49 81.98 36.1C81.48 36.65 80.6 36.53 80.26 35.86C80.08 35.52 80.06 34.99 80.2 34.77C80.49 34.3 81.06 34.1 81.59 34.24Z" fill="#323232" fill-opacity="1.000000" fill-rule="evenodd"/>
	<path id="Vector" d="M52.1 33.52C51.58 33.65 51.16 34 50.94 34.49C50.75 34.89 50.75 35.68 50.94 36.05C51.11 36.41 51.42 36.71 51.8 36.89C52.42 37.17 53.38 37.04 53.8 36.61L53.95 36.45L53.82 36.25C53.75 36.13 53.67 36.04 53.64 36.04C53.62 36.04 53.51 36.11 53.42 36.18C53.02 36.47 52.55 36.51 52.1 36.3C51.4 35.98 51.25 34.99 51.82 34.43C52.21 34.03 52.78 33.96 53.31 34.26C53.59 34.42 53.58 34.42 53.77 34.11L53.89 33.9L53.76 33.82C53.29 33.51 52.62 33.39 52.1 33.52Z" fill="#323232" fill-opacity="1.000000" fill-rule="evenodd"/>
	<path id="Vector" d="M60.07 33.5C59.6 33.62 59.15 33.99 58.91 34.46C58.79 34.68 58.77 34.8 58.77 35.25C58.77 35.71 58.79 35.84 58.91 36.07C59.09 36.43 59.37 36.71 59.76 36.89C60.03 37.01 60.14 37.04 60.58 37.04C61.02 37.03 61.13 37.01 61.37 36.88C61.53 36.8 61.72 36.68 61.79 36.63L61.92 36.51L61.79 36.28C61.72 36.15 61.64 36.05 61.62 36.05C61.59 36.05 61.48 36.11 61.37 36.19C60.85 36.54 60.25 36.51 59.82 36.12C59.22 35.59 59.33 34.57 60.02 34.21C60.35 34.04 60.89 34.05 61.27 34.25L61.56 34.4L61.7 34.15L61.84 33.9L61.68 33.78C61.59 33.72 61.43 33.63 61.31 33.58C61.08 33.48 60.31 33.43 60.07 33.5Z" fill="#323232" fill-opacity="1.000000" fill-rule="evenodd"/>
	<path id="Vector" d="M66.91 33.5C66.35 33.65 66.03 33.91 65.79 34.39C65.62 34.74 65.61 34.81 65.61 35.28C65.61 35.87 65.73 36.18 66.07 36.52C66.6 37.05 67.56 37.19 68.3 36.85C68.74 36.64 68.76 36.62 68.65 36.34C68.6 36.21 68.54 36.11 68.52 36.12C68.11 36.34 67.89 36.41 67.5 36.41C67.14 36.41 67.04 36.39 66.81 36.26C66.57 36.11 66.31 35.75 66.31 35.55C66.31 35.5 66.65 35.48 67.61 35.48L68.9 35.48L68.94 35.3C69.02 34.93 68.84 34.32 68.54 33.96C68.22 33.58 67.43 33.35 66.91 33.5ZM67.92 34.24C68.09 34.34 68.29 34.68 68.29 34.86C68.29 34.89 67.91 34.91 67.3 34.91C66.59 34.91 66.31 34.9 66.31 34.85C66.31 34.81 66.38 34.68 66.45 34.55C66.58 34.33 66.78 34.19 67.08 34.11C67.29 34.05 67.73 34.12 67.92 34.24Z" fill="#323232" fill-opacity="1.000000" fill-rule="evenodd"/>
	<path id="Vector" d="M75.12 33.52C74.96 33.56 74.74 33.64 74.64 33.69L74.46 33.78L74.54 34.03L74.63 34.28L74.89 34.16C75.24 34.01 75.77 34 75.99 34.14C76.18 34.26 76.31 34.55 76.31 34.82L76.31 35.02L76.07 34.93C75.53 34.74 74.68 34.93 74.4 35.29C74.13 35.63 74.11 36.2 74.35 36.56C74.58 36.89 74.81 37.01 75.26 37.01C75.66 37.01 76.07 36.88 76.16 36.73C76.23 36.62 76.31 36.66 76.31 36.81C76.31 36.94 76.33 36.95 76.62 36.95L76.93 36.95L76.93 35.72C76.93 35.04 76.9 34.4 76.88 34.29C76.79 33.99 76.59 33.72 76.36 33.6C76.1 33.47 75.52 33.43 75.12 33.52ZM76.21 35.54C76.45 35.65 76.43 35.93 76.17 36.15C75.7 36.57 75.05 36.51 74.93 36.04C74.8 35.51 75.53 35.23 76.21 35.54Z" fill="#323232" fill-opacity="1.000000" fill-rule="evenodd"/>
	<path id="Vector" d="M89.69 33.52C88.92 33.73 88.44 34.4 88.44 35.26C88.44 36.03 88.8 36.59 89.51 36.9C89.94 37.1 90.64 37.08 91.06 36.88C91.23 36.8 91.43 36.67 91.5 36.59L91.63 36.45L91.46 36.22C91.31 36.02 91.29 36 91.22 36.08C90.94 36.41 90.16 36.52 89.71 36.28C89.35 36.09 89.17 35.77 89.14 35.32C89.12 34.82 89.27 34.51 89.67 34.26C90.11 33.99 90.56 34.03 91.23 34.39C91.25 34.4 91.33 34.29 91.41 34.15L91.56 33.9L91.35 33.75C90.92 33.48 90.22 33.38 89.69 33.52Z" fill="#323232" fill-opacity="1.000000" fill-rule="evenodd"/>
	<path id="Vector" d="M96.61 33.67C96.43 33.76 96.27 33.84 96.27 33.84C96.26 33.84 96.25 33.78 96.25 33.7C96.25 33.56 96.23 33.56 95.94 33.56L95.63 33.56L95.63 36.02L95.63 38.48L95.94 38.48L96.25 38.48L96.25 37.68C96.25 37.25 96.27 36.89 96.28 36.89C96.3 36.89 96.46 36.93 96.63 36.98C97.36 37.19 98.17 36.96 98.57 36.42C98.87 36.02 98.98 35.63 98.95 35.07C98.89 34.06 98.33 33.51 97.37 33.5C97.01 33.5 96.89 33.52 96.61 33.67ZM97.73 34.21C98.11 34.41 98.35 35.03 98.23 35.52C98.08 36.16 97.65 36.47 97.02 36.43C96.83 36.41 96.58 36.36 96.47 36.31L96.25 36.22L96.25 35.37L96.25 34.52L96.45 34.37C96.56 34.28 96.73 34.18 96.83 34.14C97.05 34.05 97.5 34.09 97.73 34.21Z" fill="#323232" fill-opacity="1.000000" fill-rule="evenodd"/>
	<path id="Vector" d="M99.81 35.22L99.81 36.95L100.31 36.96C101.48 36.98 101.88 36.87 102.16 36.43C102.38 36.11 102.41 35.56 102.25 35.18C102.06 34.75 101.52 34.5 100.83 34.52C100.68 34.53 100.54 34.53 100.5 34.52C100.45 34.52 100.43 34.38 100.43 34.01L100.43 33.5L100.12 33.5L99.81 33.5L99.81 35.22ZM101.35 35.25C101.57 35.33 101.71 35.64 101.64 35.91C101.57 36.22 101.37 36.33 100.87 36.37L100.43 36.4L100.43 35.76L100.43 35.12L100.81 35.16C101.02 35.17 101.26 35.21 101.35 35.25Z" fill="#323232" fill-opacity="1.000000" fill-rule="evenodd"/>
	<path id="Vector" d="M54.68 35.25L54.68 36.95L55.01 36.95L55.33 36.95L56.28 35.73L57.22 34.51L57.22 35.73L57.22 36.95L57.56 36.95L57.9 36.95L57.9 35.25L57.9 33.56L57.56 33.56L57.24 33.56L56.31 34.75L55.38 35.95L55.37 34.75L55.36 33.56L55.02 33.56L54.68 33.56L54.68 35.25Z" fill="#323232" fill-opacity="1.000000" fill-rule="evenodd"/>
	<path id="Vector" d="M62.19 33.87L62.19 34.18L62.81 34.18L63.43 34.18L63.43 35.56L63.43 36.95L63.74 36.95L64.05 36.95L64.05 35.56L64.05 34.18L64.68 34.18L65.3 34.18L65.3 33.87L65.3 33.56L63.74 33.56L62.19 33.56L62.19 33.87Z" fill="#323232" fill-opacity="1.000000" fill-rule="evenodd"/>
	<path id="Vector" d="M69.7 33.97C69.7 34.2 69.72 34.96 69.74 35.67L69.78 36.95L70.08 36.95L70.38 36.95L70.39 35.75L70.41 34.55L71 35.32C71.33 35.74 71.62 36.07 71.64 36.06C71.67 36.04 71.93 35.7 72.23 35.29L72.78 34.55L72.8 35.75L72.81 36.95L73.12 36.95L73.43 36.95L73.43 35.25L73.43 33.56L73.13 33.56L72.83 33.56L72.24 34.35C71.92 34.78 71.64 35.14 71.62 35.14C71.59 35.14 71.29 34.78 70.96 34.35L70.35 33.56L70.03 33.56L69.7 33.56L69.7 33.97Z" fill="#323232" fill-opacity="1.000000" fill-rule="evenodd"/>
	<path id="Vector" d="M83.82 35.25L83.82 36.95L84.58 36.95C85.62 36.95 85.94 36.83 86.2 36.33C86.51 35.7 86.3 34.94 85.72 34.68C85.55 34.6 85.35 34.58 84.97 34.58L84.45 34.58L84.45 34.07L84.45 33.56L84.13 33.56L83.82 33.56L83.82 35.25ZM85.4 35.28C85.65 35.41 85.74 35.73 85.6 36.02C85.47 36.28 85.24 36.37 84.74 36.38L84.45 36.38L84.45 35.76L84.45 35.12L84.83 35.16C85.05 35.17 85.3 35.23 85.4 35.28Z" fill="#323232" fill-opacity="1.000000" fill-rule="evenodd"/>
	<path id="Vector" d="M86.99 35.28L86.99 37.01L87.3 37.01L87.61 37.01L87.61 35.28L87.61 33.56L87.3 33.56L86.99 33.56L86.99 35.28Z" fill="#323232" fill-opacity="1.000000" fill-rule="evenodd"/>
	<path id="Vector" d="M91.84 33.74C91.84 34.18 91.84 34.18 92.53 34.18L93.14 34.18L93.14 35.56L93.14 36.95L93.45 36.95L93.77 36.95L93.77 35.56L93.77 34.18L94.39 34.18L95.01 34.18L95.01 33.87L95.01 33.56L93.43 33.56L91.84 33.56L91.84 33.74Z" fill="#323232" fill-opacity="1.000000" fill-rule="evenodd"/>
	<path id="Vector" d="M102.97 35.25L102.97 36.95L103.28 36.95L103.59 36.95L103.59 35.25L103.59 33.56L103.28 33.56L102.97 33.56L102.97 35.25Z" fill="#323232" fill-opacity="1.000000" fill-rule="evenodd"/>
	<path id="Vector" d="M104.64 33.94C104.79 34.15 105.06 34.52 105.24 34.76C105.45 35.03 105.56 35.22 105.54 35.27C105.51 35.3 105.25 35.67 104.95 36.07C104.65 36.47 104.39 36.84 104.36 36.88C104.33 36.93 104.41 36.95 104.69 36.95L105.06 36.95L105.54 36.3C105.81 35.94 106.04 35.65 106.05 35.65C106.06 35.65 106.28 35.94 106.54 36.3L107.01 36.95L107.39 36.95C107.6 36.95 107.77 36.94 107.77 36.92C107.77 36.9 107.49 36.51 107.15 36.04L106.53 35.19L107 34.56C107.26 34.21 107.53 33.84 107.6 33.74L107.72 33.56L107.34 33.56L106.95 33.56L106.51 34.18L106.07 34.81L105.62 34.18L105.17 33.56L104.77 33.56L104.37 33.56L104.64 33.94Z" fill="#323232" fill-opacity="1.000000" fill-rule="evenodd"/>
	<path id="Vector" d="M78.99 38.87C78.92 38.98 79.1 39.41 79.3 39.61C79.71 40.02 80.54 40.05 80.95 39.68C81.1 39.54 81.26 39.23 81.29 39.01C81.31 38.84 81.3 38.84 81.02 38.83L80.73 38.81L80.64 39.06C80.44 39.58 79.83 39.56 79.64 39.01C79.57 38.83 79.55 38.81 79.3 38.81C79.15 38.81 79.01 38.84 78.99 38.87Z" fill="#323232" fill-opacity="1.000000" fill-rule="evenodd"/>
	<path id="Vector" d="M59.65 40.6C59.51 40.65 59.35 40.71 59.29 40.76C59.2 40.83 59.2 40.85 59.29 41.07C59.34 41.2 59.38 41.3 59.39 41.3C59.39 41.3 59.54 41.25 59.72 41.19C60.1 41.05 60.42 41.05 60.69 41.16C60.92 41.25 61 41.38 61.05 41.76C61.1 42.03 61.09 42.04 60.98 42.01C59.82 41.68 58.97 42.11 58.97 43.04C58.97 43.68 59.38 44.07 60.04 44.07C60.36 44.07 60.76 43.93 60.96 43.75C61.05 43.67 61.06 43.67 61.06 43.84L61.06 44.02L61.37 44.02L61.68 44.02L61.68 42.78C61.68 41.38 61.63 41.11 61.33 40.81C61.22 40.7 61.05 40.6 60.94 40.57C60.66 40.49 59.95 40.51 59.65 40.6ZM60.86 42.55C61.02 42.63 61.03 42.66 61.03 42.89C61.03 43.12 61.02 43.15 60.76 43.31C60.21 43.64 59.62 43.46 59.63 42.97C59.64 42.74 59.72 42.61 59.96 42.51C60.16 42.42 60.62 42.44 60.86 42.55Z" fill="#323232" fill-opacity="1.000000" fill-rule="evenodd"/>
	<path id="Vector" d="M66.88 40.56C66.39 40.71 66 41.06 65.78 41.52C65.61 41.91 65.62 42.69 65.79 43.09C66.14 43.85 66.99 44.25 67.87 44.07C68.18 44.01 68.56 43.85 68.73 43.72C68.77 43.69 68.76 43.61 68.7 43.43C68.58 43.13 68.6 43.14 68.44 43.24C68.27 43.36 67.75 43.51 67.53 43.51C67.08 43.51 66.6 43.22 66.45 42.85C66.29 42.47 66.23 42.49 67.7 42.49L69.04 42.49L69 42.05C68.98 41.8 68.92 41.52 68.85 41.38C68.69 41.05 68.28 40.7 67.93 40.6C67.64 40.51 67.12 40.49 66.88 40.56ZM67.93 41.28C68.13 41.43 68.27 41.63 68.31 41.82L68.35 41.98L67.33 41.98L66.31 41.98L66.4 41.77C66.51 41.51 66.69 41.31 66.91 41.21C67.15 41.09 67.74 41.14 67.93 41.28Z" fill="#323232" fill-opacity="1.000000" fill-rule="evenodd"/>
	<path id="Vector" d="M75.48 40.61C75.04 40.77 74.79 41 74.57 41.43C74.4 41.76 74.38 41.86 74.38 42.28C74.37 42.78 74.48 43.12 74.76 43.49C75.07 43.89 75.79 44.16 76.4 44.1C76.77 44.06 77.42 43.8 77.47 43.66C77.5 43.59 77.36 43.17 77.31 43.17C77.29 43.17 77.15 43.23 76.98 43.3C76.55 43.5 76.26 43.54 75.9 43.43C75.42 43.29 75.26 43.12 75.1 42.62L75.06 42.49L76.4 42.49L77.74 42.49L77.71 42.05C77.66 41.11 77.13 40.57 76.2 40.53C75.89 40.51 75.7 40.53 75.48 40.61ZM76.59 41.24C76.8 41.35 76.96 41.56 77.02 41.82L77.06 41.98L76.06 41.98C75.49 41.98 75.07 41.96 75.07 41.93C75.07 41.69 75.34 41.33 75.61 41.21C75.86 41.1 76.36 41.12 76.59 41.24Z" fill="#323232" fill-opacity="1.000000" fill-rule="evenodd"/>
	<path id="Vector" d="M51.04 40.83C51.02 40.97 51.01 41.75 51.01 42.55L51.01 44.02L51.34 44.02L51.68 44.02L51.68 42.6L51.68 41.19L52.59 41.19L53.49 41.19L53.49 42.6L53.49 44.02L53.8 44.02L54.11 44.02L54.11 42.29L54.11 40.57L52.59 40.57L51.08 40.57L51.04 40.83Z" fill="#323232" fill-opacity="1.000000" fill-rule="evenodd"/>
	<path id="Vector" d="M55.73 40.61C55.71 40.62 55.69 40.82 55.69 41.04C55.69 42.09 55.47 42.99 55.15 43.28C55.04 43.37 54.93 43.45 54.9 43.45C54.84 43.45 54.83 43.9 54.89 44C54.95 44.09 55.38 43.99 55.6 43.83C55.94 43.59 56.21 42.77 56.29 41.71L56.33 41.19L56.89 41.19L57.44 41.19L57.44 42.6L57.44 44.02L57.78 44.02L58.12 44.02L58.12 42.29L58.12 40.57L56.95 40.57C56.3 40.57 55.75 40.58 55.73 40.61Z" fill="#323232" fill-opacity="1.000000" fill-rule="evenodd"/>
	<path id="Vector" d="M62.22 40.63C62.2 40.66 62.2 40.8 62.22 40.94L62.25 41.19L62.87 41.19L63.49 41.19L63.49 42.6L63.49 44.02L63.8 44.02L64.11 44.02L64.11 42.6L64.11 41.19L64.73 41.19L65.35 41.19L65.35 40.88L65.35 40.57L63.81 40.57C62.76 40.57 62.24 40.59 62.22 40.63Z" fill="#323232" fill-opacity="1.000000" fill-rule="evenodd"/>
	<path id="Vector" d="M69.37 40.74C69.44 40.84 69.71 41.21 69.99 41.56C70.27 41.92 70.49 42.22 70.49 42.23C70.49 42.25 70.22 42.64 69.87 43.09C69.53 43.55 69.25 43.95 69.25 43.97C69.25 44 69.41 44.02 69.61 44.02L69.98 44.02L70.31 43.55C70.49 43.29 70.78 42.89 70.94 42.65L71.24 42.22L70.66 41.39L70.08 40.57L69.66 40.57L69.24 40.57L69.37 40.74Z" fill="#323232" fill-opacity="1.000000" fill-rule="evenodd"/>
	<path id="Vector" d="M71.34 42.29L71.34 44.02L71.65 44.02L71.96 44.02L71.96 42.29L71.96 40.57L71.65 40.57L71.34 40.57L71.34 42.29Z" fill="#323232" fill-opacity="1.000000" fill-rule="evenodd"/>
	<path id="Vector" d="M72.78 41.26C72.51 41.65 72.25 42.03 72.2 42.1C72.11 42.25 72.13 42.27 72.73 43.13L73.35 44.01L73.76 44.01L74.16 44.02L73.5 43.12L72.83 42.23L73.44 41.44C73.78 41.01 74.05 40.63 74.05 40.61C74.05 40.58 73.88 40.57 73.66 40.57L73.27 40.57L72.78 41.26Z" fill="#323232" fill-opacity="1.000000" fill-rule="evenodd"/>
	<path id="Vector" d="M78.51 42.29L78.51 44.02L78.82 44.02L79.12 44.02L80.07 42.79L81.03 41.57L81.06 42.78L81.08 43.99L81.39 43.99L81.71 43.99L81.72 42.27L81.73 40.57L81.4 40.57L81.07 40.57L80.12 41.79L79.16 43.03L79.15 41.79L79.14 40.57L78.82 40.57L78.51 40.57L78.51 42.29Z" fill="#323232" fill-opacity="1.000000" fill-rule="evenodd"/>
</svg>
