<svg width="51" height="50" viewBox="0 0 51 50" fill="none" xmlns="http://www.w3.org/2000/svg">
<g id="Group 36">
<path id="Vector" fill-rule="evenodd" clip-rule="evenodd" d="M7.70797 0.118087C7.56079 0.190056 3.24052 4.50591 3.17276 4.64868C3.10291 4.79581 3.11167 5.0071 3.19326 5.14426C3.23051 5.2069 4.18918 6.18257 5.45275 7.44387C7.36033 9.34802 7.66252 9.64024 7.76207 9.67718C7.99978 9.76532 8.24501 9.66618 8.36069 9.43512L8.42112 9.31441L8.43321 8.04524C8.44665 6.63457 8.4415 6.67685 8.60995 6.59091C8.70431 6.54277 8.75616 6.54261 22.9382 6.54253C35.9313 6.54249 37.1783 6.54584 37.2465 6.58112C37.4025 6.66176 37.4002 6.64075 37.4036 8.03165C37.4067 9.27829 37.4072 9.29135 37.4604 9.40673C37.5819 9.66988 37.8626 9.77907 38.1198 9.66325C38.2041 9.62532 38.7217 9.12169 40.4113 7.43366C41.6118 6.23433 42.6286 5.1995 42.6708 5.13409C42.7616 4.99341 42.7738 4.82317 42.703 4.68494C42.6378 4.55769 38.2513 0.174125 38.1303 0.115307C37.9469 0.0261992 37.6787 0.072373 37.5468 0.215802C37.5175 0.24764 37.474 0.31707 37.4501 0.370085C37.4102 0.458638 37.4065 0.568802 37.4043 1.731C37.402 2.94953 37.4002 2.99793 37.3542 3.06062C37.328 3.09639 37.2692 3.1447 37.2236 3.16793C37.145 3.20803 36.411 3.21021 22.9204 3.21023C10.268 3.21028 8.69002 3.20625 8.6085 3.17363C8.43887 3.10575 8.4466 3.16926 8.43321 1.73562C8.42141 0.474109 8.41984 0.439491 8.36886 0.329206C8.29539 0.170232 8.15965 0.0841944 7.96502 0.0732432C7.84939 0.0667402 7.79282 0.0766034 7.70797 0.118087ZM45.3453 7.54675C45.2972 7.56392 45.2265 7.60081 45.1882 7.62871C45.1498 7.6566 44.1425 8.6565 42.9498 9.85071C41.2697 11.5329 40.7702 12.0465 40.7323 12.1308C40.6145 12.3929 40.731 12.6752 41.0087 12.8003C41.0978 12.8405 41.2085 12.8441 42.4211 12.8465L43.7369 12.8491L43.781 12.9036C43.8236 12.9562 43.8251 13.4524 43.8251 27.2572C43.8251 40.2287 43.8215 41.5637 43.787 41.6366C43.7152 41.7878 43.7231 41.7869 42.3791 41.7889C41.3691 41.7904 41.1414 41.7969 41.037 41.8272C40.7456 41.912 40.6041 42.233 40.7323 42.5185C40.7702 42.6029 41.2725 43.1186 42.974 44.8202C45.3377 47.1841 45.2687 47.1217 45.5187 47.1187C45.5814 47.118 45.6752 47.0944 45.7363 47.064C45.8878 46.9886 50.2038 42.6724 50.28 42.52C50.3807 42.3187 50.3303 42.0742 50.1583 41.9294C49.998 41.7945 49.9249 41.7877 48.5893 41.7832C47.6412 41.78 47.354 41.772 47.31 41.7478C47.2789 41.7306 47.233 41.6705 47.208 41.6142C47.1639 41.5145 47.1627 41.1366 47.1604 27.2933C47.1584 15.5784 47.1636 13.0634 47.1898 13.0099C47.2073 12.9742 47.2515 12.9229 47.2879 12.8959C47.3526 12.8481 47.387 12.8468 48.6296 12.8454L49.905 12.8439L50.0409 12.7772C50.1861 12.7059 50.2769 12.5986 50.3274 12.4389C50.3597 12.3368 50.3447 12.2377 50.2754 12.0945C50.244 12.0297 49.5047 11.2768 48.0361 9.81408C45.7304 7.51748 45.7251 7.51267 45.5173 7.5147C45.4708 7.51513 45.3934 7.52956 45.3453 7.54675ZM2.4983 11.8068C1.42946 11.9973 0.721482 12.6739 0.475432 13.74L0.420023 13.9801L0.412287 30.564C0.406654 42.6183 0.4119 47.2296 0.431482 47.447C0.491846 48.1168 0.703085 48.6251 1.09249 49.0375C1.47097 49.4384 1.94045 49.6692 2.56319 49.7605C2.8134 49.7972 4.16371 49.8007 19.6011 49.8038L36.3672 49.8072L36.6089 49.7406C36.7419 49.704 36.9703 49.615 37.1166 49.5429C37.7159 49.2476 38.1103 48.7936 38.3211 48.1565C38.4973 47.6239 38.4825 49.2146 38.4825 30.8199C38.4825 19.1918 38.4747 14.187 38.4565 14.0237C38.4167 13.6665 38.3286 13.3589 38.1811 13.0615C37.856 12.4061 37.3397 12.0207 36.5243 11.8248C36.3506 11.783 35.6348 11.781 19.5173 11.7768C5.04495 11.773 2.66465 11.7772 2.4983 11.8068ZM5.6652 16.7382C5.52404 16.7752 5.47562 16.8097 5.433 16.9035C5.38963 16.999 5.38823 17.4221 5.38772 30.7455C5.38738 39.6531 5.39553 44.5181 5.41088 44.5716C5.44726 44.6985 5.54539 44.7851 5.68698 44.8154C5.77536 44.8343 9.68986 44.8397 19.5173 44.8344L33.2244 44.8271L33.3196 44.7772C33.3776 44.7468 33.4332 44.6917 33.4621 44.636C33.509 44.5456 33.5094 44.4071 33.5052 30.6888L33.501 16.8328L33.4507 16.7905C33.403 16.7503 32.8992 16.7482 23.6163 16.7482C18.235 16.7482 12.0055 16.7431 9.77288 16.7368C7.54024 16.7306 5.69179 16.7312 5.6652 16.7382Z" fill="#5754FF"/>
<rect id="Rectangle 103" x="3.20703" y="14.5891" width="32.3087" height="32.3088" fill="#5754FF"/>
</g>
</svg>
