<svg width="64.000000" height="57.000000" viewBox="0 0 64 57" fill="none" xmlns="http://www.w3.org/2000/svg" xmlns:xlink="http://www.w3.org/1999/xlink">
	<desc>
			Created with Pixso.
	</desc>
	<defs/>
	<path id="Vector" d="M31.41 -0.31L19.75 -0.3L19.69 -0.22C19.64 -0.15 19.64 -0.02 19.63 1.53C19.63 2.67 19.64 3.21 19.66 3.24C19.69 3.27 20.63 3.28 24.42 3.28C27.11 3.28 29.17 3.29 29.2 3.31C29.23 3.33 29.24 5.11 29.23 15.41C29.23 27.4 29.23 27.48 29.28 27.56L29.34 27.63L31.37 27.63C32.79 27.63 33.41 27.62 33.43 27.6C33.46 27.57 33.47 24.14 33.47 15.47C33.47 7.95 33.48 3.37 33.49 3.34C33.52 3.3 34.1 3.29 38.37 3.29C43.17 3.28 43.22 3.28 43.25 3.22C43.27 3.18 43.28 2.62 43.27 1.48C43.26 -0.28 43.26 -0.34 43.13 -0.33C43.11 -0.32 37.83 -0.32 31.41 -0.31ZM-0.4 31.08C-0.46 31.09 -0.53 31.12 -0.54 31.14C-0.57 31.19 -0.56 32.98 -0.53 33.05C-0.51 33.08 -0.47 33.11 -0.44 33.12C-0.4 33.13 13.96 33.14 31.48 33.14C61.07 33.14 63.35 33.13 63.38 33.09C63.44 33.02 63.46 31.21 63.4 31.13C63.37 31.08 61.81 31.08 31.54 31.07C14.03 31.07 -0.34 31.07 -0.4 31.08ZM47.89 36.78C47.09 36.89 46.1 37.17 45.48 37.48C44.59 37.91 44.12 38.3 43.44 39.18C43.16 39.53 42.88 40.18 42.76 40.75C42.73 40.87 42.69 41.02 42.66 41.07C42.61 41.2 42.59 41.55 42.59 42.17C42.59 42.66 42.6 42.74 42.68 43.01C42.71 43.1 42.76 43.31 42.8 43.47C42.87 43.8 43.07 44.28 43.22 44.51C43.6 45.07 44.35 45.8 44.95 46.21C45.32 46.46 46.22 46.94 46.6 47.1C46.73 47.15 46.94 47.23 47.05 47.28C47.16 47.33 47.37 47.41 47.51 47.45C47.65 47.5 47.91 47.6 48.08 47.68C48.25 47.76 48.57 47.9 48.79 48C49.22 48.2 49.9 48.63 50.23 48.91C50.41 49.07 50.82 49.56 50.91 49.72C50.98 49.87 51.16 50.39 51.2 50.58C51.25 50.84 51.27 51.43 51.24 51.72C51.18 52.16 50.94 52.8 50.75 53.02C50.68 53.1 50.58 53.22 50.53 53.29C50.41 53.47 50.29 53.58 49.99 53.79C49.55 54.08 49.12 54.26 48.45 54.41C48.1 54.5 48.07 54.5 47.27 54.5C46.52 54.49 46.42 54.49 46.02 54.41C45.55 54.33 44.92 54.17 44.58 54.05C44.05 53.87 43.27 53.51 43.14 53.4C42.96 53.25 42.9 53.26 42.79 53.47C42.75 53.56 42.66 53.79 42.6 53.98C42.54 54.17 42.46 54.44 42.41 54.58C42.3 54.91 42.2 55.28 42.2 55.35C42.2 55.44 42.42 55.61 42.68 55.73C43.41 56.05 43.65 56.13 44.46 56.32C45.45 56.56 45.74 56.6 46.4 56.64C46.74 56.66 47.07 56.67 47.14 56.67C48.33 56.62 48.46 56.61 48.91 56.52C49.17 56.47 49.48 56.39 49.62 56.35C50.61 56.06 50.58 56.07 51.21 55.72C51.69 55.45 51.98 55.24 52.37 54.86C52.69 54.55 52.81 54.4 53.16 53.86C53.36 53.54 53.42 53.42 53.56 53.02C53.74 52.52 53.8 52.23 53.89 51.53L53.96 51.06L53.89 50.56C53.81 49.91 53.78 49.73 53.61 49.24C53.46 48.8 53.39 48.64 53.29 48.5C53.25 48.45 53.16 48.32 53.09 48.2C52.86 47.83 52.43 47.35 52.05 47.04C51.28 46.43 50.06 45.77 49.02 45.41C48.77 45.32 48.52 45.22 48.45 45.18C48.39 45.15 48.16 45.04 47.95 44.95C46.79 44.44 46.18 44.03 45.7 43.4C45.42 43.03 45.29 42.66 45.21 42.01C45.17 41.63 45.19 41.47 45.34 40.94C45.45 40.55 45.52 40.41 45.77 40.1C46.21 39.56 46.89 39.17 47.71 39C48.03 38.93 48.13 38.92 48.78 38.92C49.39 38.91 49.56 38.92 49.91 38.98C50.61 39.1 51.2 39.27 51.76 39.54C52.09 39.69 52.18 39.72 52.31 39.72L52.48 39.72L52.51 39.6C52.53 39.54 52.66 39.14 52.81 38.72C52.95 38.3 53.06 37.91 53.06 37.85C53.06 37.79 53.04 37.72 53.01 37.68C52.91 37.54 52.36 37.32 51.62 37.12C50.52 36.82 49.96 36.75 48.86 36.75C48.42 36.76 47.98 36.77 47.89 36.78ZM13.29 37.01C12.75 37.07 12.41 37.1 11.93 37.14C11.32 37.18 10.63 37.25 10.44 37.29C10.28 37.32 10.14 37.38 10.14 37.43C10.14 37.44 10.14 41.68 10.14 46.84C10.14 55.86 10.14 56.23 10.19 56.28C10.23 56.32 10.35 56.34 10.84 56.38C11.74 56.45 12.41 56.49 13.11 56.5C13.45 56.51 13.79 56.53 13.87 56.55C14.04 56.59 15.05 56.58 15.29 56.55C15.38 56.53 15.56 56.52 15.68 56.52C15.98 56.52 17.03 56.41 17.45 56.34C17.64 56.3 18 56.24 18.25 56.2C18.74 56.13 19.18 56.01 19.82 55.79C20.73 55.48 21.27 55.22 21.87 54.83C22.05 54.71 22.27 54.57 22.36 54.51C22.64 54.33 23.3 53.74 23.54 53.45C23.66 53.31 23.79 53.16 23.84 53.12C23.92 53.05 24.28 52.51 24.46 52.2C24.51 52.11 24.6 51.96 24.66 51.87C24.86 51.57 25.14 50.95 25.38 50.24C25.61 49.58 25.69 49.24 25.78 48.6C25.82 48.3 25.87 48.04 25.89 48.01C26.01 47.79 26.01 44.85 25.89 44.56C25.85 44.46 25.78 44.1 25.75 43.87C25.73 43.65 25.56 42.93 25.48 42.76C25.46 42.7 25.39 42.51 25.32 42.35C25.14 41.86 24.85 41.27 24.69 41.04C24.65 40.97 24.54 40.8 24.45 40.66C24.36 40.52 24.25 40.37 24.22 40.34C24.18 40.3 24.1 40.2 24.05 40.12C23.89 39.88 23.22 39.24 22.81 38.91C22.27 38.5 22 38.34 21.24 37.98C20.3 37.54 19.43 37.3 18.33 37.16C18 37.11 17.66 37.07 17.57 37.05C17.16 36.98 16.69 36.96 15.22 36.96C14.09 36.97 13.54 36.98 13.29 37.01ZM34.12 37.1C30.03 37.11 29.17 37.12 29.14 37.15C29.1 37.2 29.09 56.3 29.14 56.35C29.16 56.37 30.79 56.38 34.52 56.39C39.11 56.4 39.87 56.39 39.92 56.36C39.98 56.31 39.98 56.26 39.99 55.39C40 54.49 39.99 54.33 39.94 54.25C39.92 54.22 39.22 54.21 35.88 54.22C32.38 54.22 31.83 54.21 31.78 54.18C31.72 54.13 31.72 54.1 31.72 50.81L31.72 47.49L31.79 47.44C31.86 47.38 31.97 47.38 35.44 47.39C38.83 47.39 39.03 47.39 39.11 47.34L39.19 47.29L39.19 46.32L39.19 45.35L39.12 45.27C39.06 45.22 39.01 45.2 38.9 45.2C38.82 45.2 37.19 45.2 35.28 45.2C32.04 45.2 31.8 45.2 31.76 45.15C31.73 45.11 31.72 44.65 31.71 42.24C31.7 39.4 31.7 39.38 31.76 39.32C31.82 39.26 31.84 39.26 35.65 39.26C38.67 39.26 39.49 39.25 39.53 39.22C39.57 39.19 39.58 39.08 39.59 38.2C39.6 37.28 39.6 37.21 39.54 37.16C39.51 37.13 39.45 37.11 39.38 37.11C39.32 37.11 39.22 37.1 39.16 37.1C39.1 37.09 36.83 37.09 34.12 37.1ZM14.66 38.99C13.71 39.06 12.83 39.18 12.75 39.26C12.73 39.28 12.72 41.5 12.72 46.77C12.72 53.57 12.72 54.25 12.77 54.29C12.8 54.32 12.93 54.36 13.13 54.39C13.54 54.45 15.9 54.48 16.3 54.43C17.54 54.26 18.14 54.12 18.91 53.81C19.57 53.55 19.65 53.5 20.22 53.13C20.64 52.85 20.78 52.74 21.13 52.39C21.58 51.95 21.69 51.81 22.01 51.32C22.42 50.68 22.72 50.01 22.86 49.44C22.9 49.26 22.97 49.02 23.01 48.9C23.12 48.57 23.17 48.28 23.24 47.38C23.34 46.19 23.23 44.52 23.01 43.95C22.96 43.81 22.87 43.53 22.82 43.33C22.57 42.47 21.77 41.24 21.1 40.7C20.5 40.23 19.93 39.89 19.24 39.62C18.54 39.34 18.41 39.3 17.83 39.2C16.66 38.99 15.66 38.92 14.66 38.99Z" fill="#2C2C2C" fill-opacity="1.000000" fill-rule="evenodd"/>
</svg>
