<svg width="116.000000" height="57.000000" viewBox="0 0 116 57" fill="none" xmlns="http://www.w3.org/2000/svg" xmlns:xlink="http://www.w3.org/1999/xlink">
	<desc>
			Created with Pixso.
	</desc>
	<defs/>
	<path id="Vector" d="M76.23 19.52L76.11 19.06C70.15 20.09 63.95 20.67 57.75 20.67C51.44 20.67 45.36 20.09 39.4 19.06L39.28 19.52C45.24 20.79 51.44 21.48 57.75 21.48C64.07 21.48 70.27 20.79 76.23 19.52Z" fill="#2C2C2C" fill-opacity="1.000000" fill-rule="evenodd"/>
	<path id="Vector" d="M83.95 21.94L83.83 21.48C75.29 23.09 66.64 23.9 57.64 23.9C48.75 23.9 39.98 23.09 31.44 21.48L31.33 21.94C39.75 23.79 48.52 24.71 57.52 24.71C66.76 24.71 75.53 23.67 83.95 21.94Z" fill="#2C2C2C" fill-opacity="1.000000" fill-rule="evenodd"/>
	<path id="Vector" d="M68.86 17.33L68.75 16.86C65.12 17.33 61.5 17.56 57.75 17.56C54.01 17.56 50.39 17.33 46.76 16.86L46.64 17.33C50.27 18.02 53.89 18.36 57.75 18.36C61.5 18.36 65.24 17.9 68.86 17.33Z" fill="#2C2C2C" fill-opacity="1.000000" fill-rule="evenodd"/>
	<path id="Vector" d="M56.82 0.94C54.6 0.94 52.84 2.67 52.84 5.33L52.84 14.67L54.01 14.67L54.01 5.33C54.01 2.9 55.41 1.63 57.29 1.63C59.04 1.63 60.44 3.02 60.44 4.86L60.68 4.86C60.68 2.56 58.92 0.94 56.82 0.94Z" fill="#2C2C2C" fill-opacity="1.000000" fill-rule="evenodd"/>
	<path id="Vector" d="M56.82 0.25C59.39 0.25 61.5 2.09 61.5 5.44L61.5 14.79L62.66 14.79L62.66 5.44C62.66 1.75 60.21 -0.33 57.29 -0.33C55.3 -0.33 53.54 0.83 52.61 2.44L52.84 2.56C53.66 1.06 55.06 0.25 56.82 0.25Z" fill="#2C2C2C" fill-opacity="1.000000" fill-rule="evenodd"/>
	<path id="Vector" d="M60.79 51.36L60.33 51.36L57.64 54.71L57.64 55.06L59.98 55.06L59.98 56.56L60.79 56.56L60.79 55.06L61.61 55.06L61.61 54.48L60.79 54.48L60.79 51.36ZM59.98 54.59L57.99 54.59L59.86 52.17L59.86 54.59L59.98 54.59Z" fill="#2C2C2C" fill-opacity="1.000000" fill-rule="evenodd"/>
	<path id="Vector" d="M66.64 53.67C67.23 53.44 67.81 53.09 67.81 52.52C67.81 51.83 66.87 51.36 66.17 51.36C65.24 51.36 64.3 51.83 64.3 52.63C64.3 53.33 64.77 53.67 65.35 53.9C64.77 54.25 64.18 54.59 64.18 55.29C64.18 56.21 65 56.56 65.82 56.56C66.99 56.56 67.93 56.09 67.93 55.06C68.04 54.36 67.46 53.9 66.64 53.67ZM65.12 52.52C65.12 51.94 65.59 51.71 66.17 51.71C66.76 51.71 67.23 52.06 67.23 52.52C67.23 52.98 66.99 53.33 66.52 53.67C66.06 53.33 65.12 53.09 65.12 52.52ZM66.06 56.44C65.35 56.44 64.89 55.98 64.89 55.4C64.89 54.83 65.12 54.36 65.59 54.02C66.29 54.36 67.23 54.59 67.23 55.4C67.23 55.98 66.76 56.44 66.06 56.44Z" fill="#2C2C2C" fill-opacity="1.000000" fill-rule="evenodd"/>
	<path id="Vector" d="M48.75 56.09L48.75 51.48L48.63 51.48C48.4 51.71 47.93 52.06 47.11 52.29L47.11 52.4C47.58 52.4 47.81 52.4 47.93 52.52C47.93 52.63 48.05 52.75 48.05 52.98L48.05 55.98C48.05 56.32 47.81 56.32 47.46 56.32L47.46 56.44L49.45 56.44C48.87 56.44 48.75 56.32 48.75 56.09Z" fill="#2C2C2C" fill-opacity="1.000000" fill-rule="evenodd"/>
	<path id="Vector" d="M52.96 51.48C52.73 51.48 52.73 51.48 52.73 51.25L52.61 51.25L52.02 52.63L52.26 52.63L52.37 52.4C52.49 52.29 52.49 52.17 52.73 52.17L54.95 52.17L53.31 55.52C52.96 56.1 52.73 56.56 52.73 56.56C52.73 56.67 52.96 56.67 53.08 56.67C53.43 56.67 53.54 56.56 53.66 56.33L55.53 51.71L55.53 51.48L53.66 51.48C53.31 51.48 53.19 51.48 52.96 51.48Z" fill="#2C2C2C" fill-opacity="1.000000" fill-rule="evenodd"/>
	<path id="Vector" d="M50.97 46.06L0.92 46.06L0.92 46.52L50.97 46.52L50.97 46.06Z" fill="#2C2C2C" fill-opacity="1.000000" fill-rule="evenodd"/>
	<path id="Vector" d="M115.75 46.06L56.47 46.06L56.47 46.52L115.75 46.52L115.75 46.06Z" fill="#2C2C2C" fill-opacity="1.000000" fill-rule="evenodd"/>
	<path id="Vector" d="M42.79 39.59C42.79 41.79 44.42 43.29 46.64 43.29C48.75 43.29 50.5 41.67 50.5 39.59C50.5 37.4 48.98 35.9 46.64 35.9C44.31 35.9 42.79 37.52 42.79 39.59ZM48.87 39.59C48.87 41.44 48.05 42.94 46.64 42.94C45.12 42.94 44.42 41.44 44.42 39.59C44.42 37.75 45.24 36.25 46.64 36.25C48.16 36.36 48.87 37.75 48.87 39.59Z" fill="#2C2C2C" fill-opacity="1.000000" fill-rule="evenodd"/>
	<path id="Vector" d="M77.4 31.98L77.4 32.33C78.1 32.44 78.69 32.33 78.69 33.13L78.69 42.13C78.69 42.83 77.98 42.83 77.4 42.83L77.4 43.17C78.8 43.17 80.21 43.29 81.61 43.29C82.78 43.29 84.18 43.17 85.23 42.71C86.52 42.02 86.99 41.21 86.99 40.17C86.99 38.56 85.82 37.4 84.06 37.17C85.47 36.83 86.29 35.9 86.29 34.63C86.29 33.83 85.82 32.9 84.88 32.44C83.83 31.98 82.66 31.98 81.49 31.98C80.09 31.86 78.8 31.86 77.4 31.98ZM85.12 40.17C85.12 41.9 84.06 42.71 82.08 42.71C81.14 42.71 80.56 42.59 80.56 41.67L80.56 37.52L81.37 37.52C83.36 37.63 85.12 37.75 85.12 40.17ZM84.53 34.63C84.53 36.36 83.13 37.06 81.49 37.06L80.67 37.06L80.67 32.33C80.79 32.33 81.14 32.33 81.26 32.33C83.83 32.33 84.53 33.36 84.53 34.63Z" fill="#2C2C2C" fill-opacity="1.000000" fill-rule="evenodd"/>
	<path id="Vector" d="M92.95 43.29C95.06 43.29 96.81 41.67 96.81 39.59C96.81 37.4 95.29 35.9 92.95 35.9C90.61 35.9 89.09 37.4 89.09 39.59C89.09 41.79 90.73 43.29 92.95 43.29ZM92.95 36.36C94.59 36.36 95.17 37.86 95.17 39.71C95.17 41.56 94.35 43.06 92.95 43.06C91.43 43.06 90.73 41.56 90.73 39.71C90.73 37.86 91.55 36.36 92.95 36.36Z" fill="#2C2C2C" fill-opacity="1.000000" fill-rule="evenodd"/>
	<path id="Vector" d="M5.48 43.4L6.07 43.4L9.58 34.4C10.04 33.36 10.39 32.33 11.68 32.33L11.68 31.98L7.82 31.98L7.82 32.33C8.17 32.33 8.76 32.33 9.11 32.79C9.23 33.13 9.23 33.71 8.76 34.86L6.42 40.98L3.61 33.94C3.61 33.83 3.38 33.25 3.5 32.9C3.61 32.44 4.2 32.21 4.78 32.21L4.78 31.86L-0.25 31.86L-0.25 32.21C0.1 32.21 0.57 32.33 0.92 32.67C1.27 33.02 1.51 33.59 1.86 34.52L5.48 43.4Z" fill="#2C2C2C" fill-opacity="1.000000" fill-rule="evenodd"/>
	<path id="Vector" d="M20.57 42.83C19.75 42.83 19.52 42.83 19.52 41.9L19.52 31.75C18.7 31.98 17.76 32.33 16.83 32.44L16.83 32.67C17.18 32.67 17.41 32.79 17.64 32.9C17.88 33.13 17.88 33.48 17.88 33.94L17.88 41.9C17.88 42.71 17.64 42.71 16.83 42.83L16.83 43.17L20.57 43.17L20.57 42.83Z" fill="#2C2C2C" fill-opacity="1.000000" fill-rule="evenodd"/>
	<path id="Vector" d="M25.83 42.83C25.01 42.83 24.78 42.83 24.78 41.9L24.78 31.75C23.96 31.98 23.02 32.33 22.09 32.44L22.09 32.67C22.44 32.67 22.67 32.79 22.91 32.9C23.14 33.13 23.14 33.48 23.14 33.94L23.14 41.9C23.14 42.71 22.91 42.71 22.09 42.83L22.09 43.17L25.71 43.17L25.71 42.83L25.83 42.83Z" fill="#2C2C2C" fill-opacity="1.000000" fill-rule="evenodd"/>
	<path id="Vector" d="M39.86 36.71C40.33 36.71 40.56 37.4 41.03 37.4C41.38 37.4 41.73 37.17 41.73 36.71C41.73 36.13 41.15 35.9 40.68 35.9C39.51 35.9 38.81 36.83 38.58 37.4L38.58 36.02C37.87 36.25 36.94 36.59 36.24 36.83C36.82 37.06 37.06 37.17 37.06 37.75L37.06 41.9C37.06 42.71 36.82 42.71 36 42.83L36 43.17L39.75 43.17L39.75 42.83C38.81 42.83 38.58 42.83 38.58 41.9L38.58 38.79C38.69 37.52 39.28 36.71 39.86 36.71Z" fill="#2C2C2C" fill-opacity="1.000000" fill-rule="evenodd"/>
	<path id="Vector" d="M102.54 43.29C104.06 43.29 105.11 42.48 105.7 41.21L105.46 41.09C105 41.9 104.18 42.59 103.12 42.59C101.14 42.59 100.67 40.98 100.67 39.48C100.67 38.21 101.02 36.25 102.77 36.25C103.48 36.25 104.18 36.71 104.18 37.4C104.18 37.86 104.41 38.21 104.88 38.21C105.23 38.21 105.58 37.98 105.58 37.52C105.58 36.48 104.18 35.9 102.77 35.9C100.44 35.9 99.03 37.52 99.03 39.71C98.91 41.67 100.32 43.29 102.54 43.29Z" fill="#2C2C2C" fill-opacity="1.000000" fill-rule="evenodd"/>
	<path id="Vector" d="M110.49 42.83C109.79 42.83 109.44 42.83 109.44 41.9L109.44 37.63C109.91 37.17 110.26 36.59 111.31 36.59C112.36 36.59 112.83 37.4 112.83 38.44L112.83 41.9C112.83 42.71 112.6 42.71 111.9 42.83L111.9 43.17L115.52 43.17L115.52 42.83C114.7 42.83 114.47 42.83 114.47 41.9L114.47 38.67C114.47 36.36 112.83 35.9 111.9 35.9C110.73 35.9 110.14 36.36 109.44 37.06L109.44 31.75C108.62 31.98 107.69 32.33 106.87 32.56L106.87 32.67C107.33 32.79 107.8 32.9 107.8 33.36L107.8 41.79C107.8 42.59 107.57 42.59 106.75 42.71L106.75 43.06L110.37 43.06L110.37 42.83L110.49 42.83Z" fill="#2C2C2C" fill-opacity="1.000000" fill-rule="evenodd"/>
	<path id="Vector" d="M14.25 35.9C13.43 36.13 12.38 36.48 11.68 36.71L11.68 36.83C11.91 36.83 12.15 36.83 12.38 36.94C12.73 37.17 12.73 37.63 12.73 37.98L12.73 41.9C12.73 42.71 12.5 42.71 11.68 42.83L11.68 43.17L15.31 43.17L15.31 42.83C14.6 42.83 14.25 42.83 14.25 41.9L14.25 35.9Z" fill="#2C2C2C" fill-opacity="1.000000" fill-rule="evenodd"/>
	<path id="Vector" d="M13.32 34.63C13.79 34.63 14.26 34.17 14.26 33.71C14.26 33.25 13.79 32.79 13.32 32.79C12.85 32.79 12.38 33.25 12.38 33.71C12.38 34.29 12.85 34.63 13.32 34.63Z" fill="#2C2C2C" fill-opacity="1.000000" fill-rule="evenodd"/>
	<path id="Vector" d="M31.33 43.29C33.08 43.29 34.13 42.13 34.48 41.21L34.13 41.09C33.67 42.02 32.61 42.59 31.79 42.59C29.92 42.59 29.22 41.09 29.22 39.48C29.22 39.13 29.22 38.9 29.34 38.67L34.37 38.67C34.25 36.83 32.85 35.9 31.21 35.9C28.99 35.9 27.47 37.52 27.47 39.71C27.58 41.9 29.22 43.29 31.33 43.29ZM31.33 36.36C32.03 36.36 32.85 37.06 32.85 38.21L29.46 38.21C29.81 37.06 30.51 36.36 31.33 36.36Z" fill="#2C2C2C" fill-opacity="1.000000" fill-rule="evenodd"/>
	<path id="Vector" d="M52.61 37.29L55.41 43.29L54.83 44.56C54.71 44.9 54.48 45.36 54.01 45.36C53.78 45.36 53.66 45.25 53.43 45.25C52.96 45.25 52.73 45.48 52.73 45.94C52.73 46.29 53.08 46.63 53.43 46.63C54.48 46.63 54.83 45.71 55.18 44.9L58.46 37.4C58.69 36.94 58.92 36.36 59.74 36.36L59.74 36.02L56.82 36.02L56.82 36.36C57.17 36.36 57.64 36.36 57.87 36.71C57.99 36.94 57.87 37.4 57.75 37.75L56.23 41.44L54.48 37.4C54.36 37.17 54.36 36.94 54.36 36.83C54.48 36.48 54.83 36.48 55.18 36.48L55.18 36.13L51.44 36.13L51.44 36.48C52.14 36.48 52.37 36.83 52.61 37.29Z" fill="#2C2C2C" fill-opacity="1.000000" fill-rule="evenodd"/>
	<path id="Vector" d="M64.18 40.98C64.18 42.02 64.89 43.29 66.87 43.29C67.93 43.29 68.75 42.83 69.33 42.13L69.45 42.25C70.03 42.83 70.73 43.29 71.67 43.29C72.49 43.29 73.31 42.48 73.66 41.9L73.42 41.79C73.07 42.25 72.6 42.48 72.25 42.48C71.43 42.48 70.85 42.02 70.27 41.44C70.15 41.33 70.15 41.21 70.03 41.21C70.03 41.09 70.15 40.98 70.15 40.98C70.38 40.63 70.73 39.94 70.85 39.48C71.08 38.79 71.55 37.98 72.49 37.98L72.49 37.75L69.8 37.75L69.8 37.98C70.27 37.98 70.62 38.09 70.62 38.67C70.62 39.48 70.15 40.29 69.91 40.75C69.91 40.75 69.8 40.86 69.8 40.98C69.1 40.06 68.28 38.79 67.69 37.75C68.51 37.17 69.45 36.48 69.45 35.67C69.56 34.75 68.86 34.06 67.46 34.06C66.17 34.06 65.35 34.86 65.35 36.02C65.35 36.48 65.59 37.06 65.82 37.52C65.94 37.63 66.06 37.98 66.29 38.33C65.47 38.67 64.18 39.59 64.18 40.98ZM67.58 34.29C68.16 34.29 68.63 34.63 68.51 35.44C68.51 36.02 68.28 36.48 67.46 37.17C67.34 36.94 67.23 36.71 67.11 36.59C66.76 36.02 66.64 35.67 66.64 35.21C66.76 34.86 67.11 34.29 67.58 34.29ZM66.64 38.44C67.23 39.48 68.16 40.86 68.98 41.79C68.51 42.25 67.93 42.59 67.34 42.59C66.41 42.59 65.59 41.9 65.59 40.75C65.59 39.83 66.06 39.02 66.64 38.44Z" fill="#2C2C2C" fill-opacity="1.000000" fill-rule="evenodd"/>
</svg>
