<svg width="76.000000" height="54.000000" viewBox="0 0 76 54" fill="none" xmlns="http://www.w3.org/2000/svg" xmlns:xlink="http://www.w3.org/1999/xlink">
	<desc>
			Created with Pixso.
	</desc>
	<defs/>
	<path id="Vector" d="M6.28 -0.11C2.76 0.43 -0.03 3.22 -0.55 6.74C-0.63 7.26 -0.64 9.23 -0.64 26.81C-0.64 44.39 -0.63 46.36 -0.55 46.88C-0.02 50.42 2.77 53.2 6.33 53.73C6.86 53.8 9.75 53.81 37.36 53.81C64.98 53.81 67.87 53.8 68.4 53.73C71.96 53.2 74.75 50.42 75.28 46.88C75.35 46.36 75.36 44.39 75.36 26.81C75.36 9.23 75.35 7.26 75.28 6.74C74.75 3.2 71.96 0.42 68.4 -0.11C67.87 -0.18 65 -0.19 37.29 -0.19C11.6 -0.18 6.7 -0.17 6.28 -0.11ZM6.93 5.29C5.91 5.51 5.09 6.33 4.87 7.36C4.76 7.9 4.76 45.72 4.87 46.26C5.09 47.3 5.91 48.11 6.96 48.33C7.5 48.45 67.23 48.45 67.77 48.33C68.82 48.11 69.63 47.3 69.86 46.26C69.97 45.72 69.97 7.9 69.86 7.36C69.63 6.32 68.82 5.51 67.77 5.29C67.25 5.18 7.44 5.18 6.93 5.29ZM45.72 17.04C41.4 17.29 38.67 19.54 38.67 22.85C38.67 24.88 39.49 26.34 41.27 27.49C41.48 27.62 42.18 28 42.83 28.34C44.19 29.04 44.5 29.23 44.91 29.6C45.33 29.99 45.53 30.39 45.53 30.89C45.53 31.33 45.42 31.58 45.09 31.9C44.6 32.37 43.85 32.58 42.59 32.63C40.99 32.68 39.62 32.44 38.13 31.85C37.8 31.71 37.51 31.61 37.5 31.62C37.47 31.66 36.65 35.51 36.67 35.54C36.74 35.6 37.46 35.89 37.91 36.04C39.7 36.6 42.18 36.77 43.8 36.42C44.93 36.18 46.38 35.58 47.32 34.97C49.4 33.61 50.55 31.81 50.55 29.94C50.55 28.54 49.98 27.39 48.8 26.44C48.1 25.88 47.81 25.7 45.61 24.54C44.16 23.77 43.7 23.34 43.69 22.73C43.69 22.05 44.02 21.56 44.68 21.26C45.3 20.97 45.73 20.9 46.81 20.9C47.69 20.9 47.79 20.91 48.25 21.05C48.84 21.23 49.6 21.56 50.08 21.84C50.39 22.02 50.45 22.04 50.47 21.96C50.49 21.87 51.26 17.97 51.26 17.93C51.26 17.91 51.02 17.83 50.73 17.74C49.14 17.25 48.28 17.1 46.78 17.01C46.6 17 46.12 17.02 45.72 17.04ZM24.02 18.16C23.87 18.59 22.85 21.56 21.76 24.76C20.67 27.95 19.76 30.57 19.75 30.58C19.73 30.6 19.7 30.49 19.53 29.62C19.38 28.83 19.19 28.35 18.65 27.38C17.51 25.33 16.08 23.58 14.45 22.24C13.7 21.62 12.69 20.93 12.62 21C12.61 21.02 13.48 24.4 14.57 28.53L16.55 36.02L19.3 36.03C21.46 36.04 22.05 36.03 22.07 35.98C22.09 35.94 23.78 31.78 25.83 26.73C27.88 21.68 29.57 17.51 29.59 17.45C29.61 17.36 29.46 17.36 26.95 17.36L24.29 17.36L24.02 18.16ZM31.59 17.41C31.57 17.43 30.91 21.56 30.12 26.57C29.32 31.59 28.66 35.77 28.64 35.87L28.61 36.04L31.11 36.04C32.49 36.04 33.62 36.03 33.62 36.01C33.62 35.99 34.29 31.81 35.11 26.72C35.93 21.63 36.6 17.45 36.6 17.41C36.6 17.35 31.63 17.34 31.59 17.41ZM58.54 17.48C58.51 17.55 56.69 21.71 54.49 26.73C52.29 31.75 50.48 35.9 50.46 35.95C50.43 36.04 50.58 36.04 52.9 36.04L55.37 36.04L55.88 34.72L56.38 33.4L59.49 33.4C62.4 33.4 62.6 33.4 62.63 33.49C62.64 33.54 62.75 34.1 62.88 34.72C63 35.35 63.11 35.9 63.13 35.95C63.15 36.04 63.31 36.04 65.41 36.04C67.3 36.04 67.65 36.03 67.65 35.97C67.65 35.88 63.87 17.53 63.83 17.43C63.81 17.37 63.23 17.36 61.2 17.36L58.59 17.36L58.54 17.48ZM7.21 17.47C7.27 17.5 7.72 17.68 8.22 17.87C11.34 19.08 14.13 20.86 16.11 22.88C17.42 24.21 18.37 25.65 18.96 27.21C19.05 27.45 19.11 27.57 19.1 27.49C19.08 27.4 18.72 25.52 18.28 23.33C17.65 20.12 17.47 19.27 17.35 19.04C17.13 18.6 16.54 18 16.09 17.77C15.41 17.41 15.41 17.41 11.03 17.42C8.65 17.42 7.14 17.44 7.21 17.47ZM59.47 25.39C58.93 26.81 58.33 28.38 58.13 28.88L57.79 29.78L59.83 29.78L61.88 29.78L61.19 26.36C60.81 24.49 60.49 22.92 60.48 22.88C60.47 22.84 60.02 23.97 59.47 25.39Z" fill="#323232" fill-opacity="1.000000" fill-rule="evenodd"/>
</svg>
