<svg width="23.000000" height="23.000000" viewBox="0 0 23 23" fill="none" xmlns="http://www.w3.org/2000/svg" xmlns:xlink="http://www.w3.org/1999/xlink">
	<desc>
			Created with Pixso.
	</desc>
	<defs/>
	<path id="Vector" d="M15.03 -0.83L7.97 -0.83C1.53 -0.83 0 0.7 0 7.14L0 14.19C0 20.64 1.52 22.17 7.96 22.17L15.02 22.17C21.46 22.17 23 20.65 23 14.21L23 7.15C23 0.7 21.47 -0.83 15.03 -0.83ZM18.56 15.58L16.89 15.58C16.25 15.58 16.06 15.07 14.92 13.93C13.93 12.97 13.51 12.85 13.26 12.85C12.91 12.85 12.81 12.95 12.81 13.43L12.81 14.94C12.81 15.34 12.68 15.58 11.61 15.58C10.58 15.51 9.58 15.2 8.69 14.66C7.8 14.13 7.05 13.4 6.5 12.52C5.2 10.89 4.29 8.99 3.85 6.96C3.85 6.71 3.95 6.48 4.43 6.48L6.1 6.48C6.54 6.48 6.69 6.67 6.86 7.11C7.67 9.51 9.06 11.59 9.63 11.59C9.84 11.59 9.94 11.5 9.94 10.96L9.94 8.49C9.87 7.36 9.27 7.27 9.27 6.86C9.28 6.75 9.32 6.65 9.4 6.58C9.48 6.51 9.59 6.47 9.7 6.48L12.33 6.48C12.69 6.48 12.81 6.66 12.81 7.09L12.81 10.42C12.81 10.78 12.97 10.9 13.08 10.9C13.29 10.9 13.46 10.78 13.85 10.38C14.7 9.35 15.4 8.19 15.92 6.96C15.97 6.81 16.07 6.68 16.2 6.59C16.33 6.51 16.49 6.47 16.65 6.48L18.32 6.48C18.83 6.48 18.93 6.73 18.83 7.09C18.22 8.45 17.46 9.75 16.57 10.96C16.39 11.23 16.32 11.38 16.57 11.7C16.74 11.95 17.33 12.44 17.72 12.91C18.3 13.48 18.78 14.15 19.14 14.87C19.28 15.34 19.04 15.58 18.56 15.58Z" fill="#5754FF" fill-opacity="1.000000" fill-rule="evenodd"/>
</svg>
