<svg width="97.000000" height="31.000000" viewBox="0 0 97 31" fill="none" xmlns="http://www.w3.org/2000/svg" xmlns:xlink="http://www.w3.org/1999/xlink">
	<desc>
			Created with Pixso.
	</desc>
	<defs/>
	<path id="Vector" d="M81.75 -0.51C80.14 -0.44 78.82 0.02 77.72 0.89C77.27 1.24 76.55 2.1 76.23 2.64C75.3 4.27 74.91 6.2 75.01 8.63C75.18 12.39 75.78 13.74 78.21 15.78C79.11 16.54 79.95 17.13 81.07 17.81C81.89 18.32 82.29 18.63 82.69 19.11C83.43 19.98 83.71 20.83 83.71 22.2C83.71 23.5 83.54 24.34 83.18 24.84C82.92 25.2 82.48 25.39 81.99 25.33C81.45 25.28 81.06 25.03 80.87 24.61L80.75 24.36L80.74 22.27L80.73 20.18L77.91 20.18L75.09 20.18L75.09 21.71C75.09 23.67 75.15 24.29 75.41 25.23C76.03 27.47 77.51 29.13 79.58 29.89C80 30.05 80.54 30.18 81.05 30.26C81.5 30.33 82.8 30.33 83.36 30.26C86.34 29.87 88.34 28.11 89.17 25.16C89.63 23.52 89.74 21.35 89.46 19.42C89.13 17.12 88.23 15.41 86.65 14.08C86.44 13.9 85.8 13.42 85.22 13.01C82.43 11.03 81.45 10.08 80.95 8.91C80.66 8.23 80.54 7.27 80.61 6.23C80.7 5.02 80.93 4.37 81.39 4.05C81.56 3.93 81.6 3.92 82.06 3.92C82.52 3.92 82.57 3.93 82.76 4.05C83 4.2 83.21 4.48 83.33 4.82C83.41 5.08 83.42 5.12 83.43 7.22L83.44 9.36L86.28 9.36L89.12 9.36L89.12 7.84C89.12 7.01 89.1 6.05 89.08 5.72C88.85 2.39 86.96 0.19 83.85 -0.37C83.3 -0.47 82.33 -0.53 81.75 -0.51ZM66.3 -0.44C64.75 -0.33 63.41 0.19 62.39 1.06C62.08 1.33 61.55 1.94 61.3 2.32C60.84 2.99 60.41 4 60.19 4.9C59.88 6.16 59.78 7.18 59.85 8.67C59.96 11.14 60.26 12.45 60.96 13.58C61.79 14.9 63.79 16.64 65.91 17.86C66.97 18.48 67.6 19.05 68.02 19.8C68.4 20.49 68.55 21.15 68.55 22.2C68.55 23.5 68.38 24.34 68.02 24.84C67.76 25.2 67.31 25.39 66.83 25.33C66.29 25.28 65.91 25.03 65.71 24.61L65.59 24.36L65.58 22.27L65.57 20.18L62.75 20.18L59.92 20.18L59.94 21.99C59.96 23.96 59.98 24.16 60.21 25.07C61.06 28.51 63.98 30.58 67.62 30.3C70.59 30.08 72.57 28.74 73.64 26.24C74.25 24.8 74.54 22.79 74.43 20.8C74.25 17.7 73.35 15.68 71.45 14.09C71.26 13.93 70.64 13.47 70.06 13.05C66.35 10.42 65.55 9.42 65.43 7.3C65.41 6.77 65.46 5.86 65.56 5.37C65.63 4.98 65.8 4.54 65.96 4.35C66.23 4.01 66.65 3.87 67.15 3.95C67.65 4.03 67.98 4.34 68.17 4.87C68.25 5.12 68.25 5.17 68.27 7.26L68.28 9.4L71.12 9.4L73.96 9.4L73.95 7.84C73.95 6.98 73.94 6.03 73.91 5.73C73.68 2.58 71.96 0.43 69.13 -0.23C68.29 -0.43 67.2 -0.51 66.3 -0.44ZM-0.78 2.55L-0.77 4.9L2.98 4.91C5.04 4.91 6.73 4.93 6.73 4.95C6.73 4.97 5.7 7.69 4.4 11.11C3.47 13.54 2.31 16.6 2.17 16.99C1.98 17.49 1.01 20.03 -0.06 22.86L-0.79 24.77L-0.79 27.26L-0.79 29.75L6.14 29.75L13.08 29.75L13.08 27.23L13.08 24.71L9.25 24.71C6.21 24.71 5.43 24.7 5.45 24.65C5.46 24.62 6.05 23.03 6.77 21.12C8.16 17.42 11.02 9.79 12.15 6.75L12.84 4.91L12.84 2.56L12.84 0.2L6.02 0.2L-0.79 0.2L-0.78 2.55ZM15.49 0.4C15.48 0.51 15.13 7.04 14.72 14.91C14.31 22.78 13.97 29.34 13.96 29.5L13.93 29.79L16.45 29.76C17.84 29.75 18.98 29.73 18.99 29.72C19 29.71 19.05 29.02 19.11 28.19C19.17 27.35 19.22 26.67 19.22 26.66C19.23 26.66 19.84 26.65 20.6 26.65C21.88 26.65 21.97 26.66 21.97 26.73C21.97 26.78 22.01 27.42 22.07 28.18C22.12 28.93 22.16 29.59 22.16 29.64L22.16 29.75L24.93 29.75C27.53 29.75 27.69 29.74 27.69 29.67C27.69 29.54 25.45 0.42 25.43 0.31L25.41 0.2L20.46 0.2L15.51 0.2L15.49 0.4ZM28.9 14.97L28.9 29.75L31.72 29.75L34.54 29.75L34.55 24.21C34.55 20.83 34.56 18.71 34.59 18.77C34.62 18.85 37.36 29.68 37.36 29.73C37.36 29.74 38.59 29.75 40.09 29.75L42.81 29.75L42.81 14.97L42.81 0.2L40.03 0.2L37.25 0.2L37.24 5.79L37.23 11.38L35.9 6.36C35.17 3.6 34.5 1.08 34.42 0.77L34.27 0.2L31.58 0.2L28.9 0.2L28.9 14.97ZM44.62 12.33C44.63 23.83 44.64 24.47 44.71 24.8C44.96 26.06 45.43 27.01 46.28 28.02C46.87 28.72 47.38 29.14 48.16 29.59C49.28 30.22 50.32 30.49 51.68 30.49C53.24 30.49 54.49 30.17 55.68 29.47C57.25 28.54 58.23 27.1 58.61 25.18L58.69 24.73L58.71 12.47L58.72 0.2L55.9 0.2L53.08 0.2L53.06 12.28L53.05 24.36L52.97 24.55C52.57 25.43 51.25 25.63 50.64 24.89C50.3 24.48 50.33 25.69 50.33 12.19L50.33 0.2L47.47 0.2L44.61 0.2L44.62 12.33ZM90.58 0.26C90.57 0.29 90.57 6.94 90.58 15.04L90.59 29.77L93.4 29.78L96.21 29.79L96.21 15L96.21 0.2L93.4 0.2C91.2 0.2 90.6 0.21 90.58 0.26ZM20.47 7C20.46 7.04 20.37 8.37 20.27 9.96C19.94 15.23 19.54 21.44 19.52 21.69L19.5 21.93L20.56 21.93L21.62 21.93L21.62 21.82C21.62 21.71 20.53 7.3 20.51 7.04C20.5 6.97 20.49 6.95 20.47 7Z" fill="#2C2C2C" fill-opacity="1.000000" fill-rule="evenodd"/>
</svg>
